<svg width="500" height="600" viewBox="0 0 500 600" fill="none" xmlns="http://www.w3.org/2000/svg">
<circle cx="7.5" cy="7.5" r="7.5" fill="#0087B1" fill-opacity="0.3"/>
<circle cx="67.5" cy="7.5" r="7.5" fill="#0087B1" fill-opacity="0.3"/>
<circle cx="37.5" cy="7.5" r="7.5" fill="#0087B1" fill-opacity="0.3"/>
<circle cx="307.5" cy="7.5" r="7.5" fill="#0087B1" fill-opacity="0.7"/>
<circle cx="367.5" cy="7.5" r="7.5" fill="#0087B1" fill-opacity="0.8"/>
<circle cx="337.5" cy="7.5" r="7.5" fill="#0087B1" fill-opacity="0.8"/>
<circle cx="397.5" cy="7.5" r="7.5" fill="#0087B1" fill-opacity="0.9"/>
<circle cx="427.5" cy="7.5" r="7.5" fill="#0087B1" fill-opacity="0.9"/>
<circle cx="487.5" cy="7.5" r="7.5" fill="#0087B1"/>
<circle cx="457.5" cy="7.5" r="7.5" fill="#0087B1"/>
<circle cx="247.5" cy="7.5" r="7.5" fill="#0087B1" fill-opacity="0.6"/>
<circle cx="277.5" cy="7.5" r="7.5" fill="#0087B1" fill-opacity="0.7"/>
<circle cx="157.5" cy="7.5" r="7.5" fill="#0087B1" fill-opacity="0.5"/>
<circle cx="217.5" cy="7.5" r="7.5" fill="#0087B1" fill-opacity="0.6"/>
<circle cx="187.5" cy="7.5" r="7.5" fill="#0087B1" fill-opacity="0.5"/>
<circle cx="97.5" cy="7.5" r="7.5" fill="#0087B1" fill-opacity="0.4"/>
<circle cx="127.5" cy="7.5" r="7.5" fill="#0087B1" fill-opacity="0.4"/>
<circle cx="7.5" cy="37.5" r="7.5" fill="#0087B1" fill-opacity="0.3"/>
<circle cx="67.5" cy="37.5" r="7.5" fill="#0087B1" fill-opacity="0.3"/>
<circle cx="37.5" cy="37.5" r="7.5" fill="#0087B1" fill-opacity="0.3"/>
<circle cx="307.5" cy="37.5" r="7.5" fill="#0087B1" fill-opacity="0.7"/>
<circle cx="367.5" cy="37.5" r="7.5" fill="#0087B1" fill-opacity="0.8"/>
<circle cx="337.5" cy="37.5" r="7.5" fill="#0087B1" fill-opacity="0.8"/>
<circle cx="397.5" cy="37.5" r="7.5" fill="#0087B1" fill-opacity="0.9"/>
<circle cx="427.5" cy="37.5" r="7.5" fill="#0087B1" fill-opacity="0.9"/>
<circle cx="487.5" cy="37.5" r="7.5" fill="#0087B1"/>
<circle cx="457.5" cy="37.5" r="7.5" fill="#0087B1"/>
<circle cx="247.5" cy="37.5" r="7.5" fill="#0087B1" fill-opacity="0.6"/>
<circle cx="277.5" cy="37.5" r="7.5" fill="#0087B1" fill-opacity="0.7"/>
<circle cx="157.5" cy="37.5" r="7.5" fill="#0087B1" fill-opacity="0.5"/>
<circle cx="217.5" cy="37.5" r="7.5" fill="#0087B1" fill-opacity="0.6"/>
<circle cx="187.5" cy="37.5" r="7.5" fill="#0087B1" fill-opacity="0.5"/>
<circle cx="97.5" cy="37.5" r="7.5" fill="#0087B1" fill-opacity="0.4"/>
<circle cx="127.5" cy="37.5" r="7.5" fill="#0087B1" fill-opacity="0.4"/>
<circle cx="7.5" cy="67.5" r="7.5" fill="#0087B1" fill-opacity="0.3"/>
<circle cx="67.5" cy="67.5" r="7.5" fill="#0087B1" fill-opacity="0.3"/>
<circle cx="37.5" cy="67.5" r="7.5" fill="#0087B1" fill-opacity="0.3"/>
<circle cx="307.5" cy="67.5" r="7.5" fill="#0087B1" fill-opacity="0.7"/>
<circle cx="367.5" cy="67.5" r="7.5" fill="#0087B1" fill-opacity="0.8"/>
<circle cx="337.5" cy="67.5" r="7.5" fill="#0087B1" fill-opacity="0.8"/>
<circle cx="397.5" cy="67.5" r="7.5" fill="#0087B1" fill-opacity="0.9"/>
<circle cx="427.5" cy="67.5" r="7.5" fill="#0087B1" fill-opacity="0.9"/>
<circle cx="487.5" cy="67.5" r="7.5" fill="#0087B1"/>
<circle cx="457.5" cy="67.5" r="7.5" fill="#0087B1"/>
<circle cx="247.5" cy="67.5" r="7.5" fill="#0087B1" fill-opacity="0.6"/>
<circle cx="277.5" cy="67.5" r="7.5" fill="#0087B1" fill-opacity="0.7"/>
<circle cx="157.5" cy="67.5" r="7.5" fill="#0087B1" fill-opacity="0.5"/>
<circle cx="217.5" cy="67.5" r="7.5" fill="#0087B1" fill-opacity="0.6"/>
<circle cx="187.5" cy="67.5" r="7.5" fill="#0087B1" fill-opacity="0.5"/>
<circle cx="97.5" cy="67.5" r="7.5" fill="#0087B1" fill-opacity="0.4"/>
<circle cx="127.5" cy="67.5" r="7.5" fill="#0087B1" fill-opacity="0.4"/>
<circle cx="7.5" cy="7.5" r="7.5" fill="#0087B1" fill-opacity="0.3"/>
<circle cx="67.5" cy="7.5" r="7.5" fill="#0087B1" fill-opacity="0.3"/>
<circle cx="37.5" cy="7.5" r="7.5" fill="#0087B1" fill-opacity="0.3"/>
<circle cx="307.5" cy="7.5" r="7.5" fill="#0087B1" fill-opacity="0.7"/>
<circle cx="367.5" cy="7.5" r="7.5" fill="#0087B1" fill-opacity="0.8"/>
<circle cx="337.5" cy="7.5" r="7.5" fill="#0087B1" fill-opacity="0.8"/>
<circle cx="397.5" cy="7.5" r="7.5" fill="#0087B1" fill-opacity="0.9"/>
<circle cx="427.5" cy="7.5" r="7.5" fill="#0087B1" fill-opacity="0.9"/>
<circle cx="487.5" cy="7.5" r="7.5" fill="#0087B1"/>
<circle cx="457.5" cy="7.5" r="7.5" fill="#0087B1"/>
<circle cx="247.5" cy="7.5" r="7.5" fill="#0087B1" fill-opacity="0.6"/>
<circle cx="277.5" cy="7.5" r="7.5" fill="#0087B1" fill-opacity="0.7"/>
<circle cx="157.5" cy="7.5" r="7.5" fill="#0087B1" fill-opacity="0.5"/>
<circle cx="217.5" cy="7.5" r="7.5" fill="#0087B1" fill-opacity="0.6"/>
<circle cx="187.5" cy="7.5" r="7.5" fill="#0087B1" fill-opacity="0.5"/>
<circle cx="97.5" cy="7.5" r="7.5" fill="#0087B1" fill-opacity="0.4"/>
<circle cx="127.5" cy="7.5" r="7.5" fill="#0087B1" fill-opacity="0.4"/>
<circle cx="7.5" cy="97.5" r="7.5" fill="#0087B1" fill-opacity="0.3"/>
<circle cx="67.5" cy="97.5" r="7.5" fill="#0087B1" fill-opacity="0.3"/>
<circle cx="37.5" cy="97.5" r="7.5" fill="#0087B1" fill-opacity="0.3"/>
<circle cx="307.5" cy="97.5" r="7.5" fill="#0087B1" fill-opacity="0.7"/>
<circle cx="367.5" cy="97.5" r="7.5" fill="#0087B1" fill-opacity="0.8"/>
<circle cx="337.5" cy="97.5" r="7.5" fill="#0087B1" fill-opacity="0.8"/>
<circle cx="397.5" cy="97.5" r="7.5" fill="#0087B1" fill-opacity="0.9"/>
<circle cx="427.5" cy="97.5" r="7.5" fill="#0087B1" fill-opacity="0.9"/>
<circle cx="487.5" cy="97.5" r="7.5" fill="#0087B1"/>
<circle cx="457.5" cy="97.5" r="7.5" fill="#0087B1"/>
<circle cx="247.5" cy="97.5" r="7.5" fill="#0087B1" fill-opacity="0.6"/>
<circle cx="277.5" cy="97.5" r="7.5" fill="#0087B1" fill-opacity="0.7"/>
<circle cx="157.5" cy="97.5" r="7.5" fill="#0087B1" fill-opacity="0.5"/>
<circle cx="217.5" cy="97.5" r="7.5" fill="#0087B1" fill-opacity="0.6"/>
<circle cx="187.5" cy="97.5" r="7.5" fill="#0087B1" fill-opacity="0.5"/>
<circle cx="97.5" cy="97.5" r="7.5" fill="#0087B1" fill-opacity="0.4"/>
<circle cx="127.5" cy="97.5" r="7.5" fill="#0087B1" fill-opacity="0.4"/>
<circle cx="7.5" cy="127.5" r="7.5" fill="#0087B1" fill-opacity="0.3"/>
<circle cx="67.5" cy="127.5" r="7.5" fill="#0087B1" fill-opacity="0.3"/>
<circle cx="37.5" cy="127.5" r="7.5" fill="#0087B1" fill-opacity="0.3"/>
<circle cx="307.5" cy="127.5" r="7.5" fill="#0087B1" fill-opacity="0.7"/>
<circle cx="367.5" cy="127.5" r="7.5" fill="#0087B1" fill-opacity="0.8"/>
<circle cx="337.5" cy="127.5" r="7.5" fill="#0087B1" fill-opacity="0.8"/>
<circle cx="397.5" cy="127.5" r="7.5" fill="#0087B1" fill-opacity="0.9"/>
<circle cx="427.5" cy="127.5" r="7.5" fill="#0087B1" fill-opacity="0.9"/>
<circle cx="487.5" cy="127.5" r="7.5" fill="#0087B1"/>
<circle cx="457.5" cy="127.5" r="7.5" fill="#0087B1"/>
<circle cx="247.5" cy="127.5" r="7.5" fill="#0087B1" fill-opacity="0.6"/>
<circle cx="277.5" cy="127.5" r="7.5" fill="#0087B1" fill-opacity="0.7"/>
<circle cx="157.5" cy="127.5" r="7.5" fill="#0087B1" fill-opacity="0.5"/>
<circle cx="217.5" cy="127.5" r="7.5" fill="#0087B1" fill-opacity="0.6"/>
<circle cx="187.5" cy="127.5" r="7.5" fill="#0087B1" fill-opacity="0.5"/>
<circle cx="97.5" cy="127.5" r="7.5" fill="#0087B1" fill-opacity="0.4"/>
<circle cx="127.5" cy="127.5" r="7.5" fill="#0087B1" fill-opacity="0.4"/>
<circle cx="7.5" cy="157.5" r="7.5" fill="#0087B1" fill-opacity="0.3"/>
<circle cx="67.5" cy="157.5" r="7.5" fill="#0087B1" fill-opacity="0.3"/>
<circle cx="37.5" cy="157.5" r="7.5" fill="#0087B1" fill-opacity="0.3"/>
<circle cx="307.5" cy="157.5" r="7.5" fill="#0087B1" fill-opacity="0.7"/>
<circle cx="367.5" cy="157.5" r="7.5" fill="#0087B1" fill-opacity="0.8"/>
<circle cx="337.5" cy="157.5" r="7.5" fill="#0087B1" fill-opacity="0.8"/>
<circle cx="397.5" cy="157.5" r="7.5" fill="#0087B1" fill-opacity="0.9"/>
<circle cx="427.5" cy="157.5" r="7.5" fill="#0087B1" fill-opacity="0.9"/>
<circle cx="487.5" cy="157.5" r="7.5" fill="#0087B1"/>
<circle cx="457.5" cy="157.5" r="7.5" fill="#0087B1"/>
<circle cx="247.5" cy="157.5" r="7.5" fill="#0087B1" fill-opacity="0.6"/>
<circle cx="277.5" cy="157.5" r="7.5" fill="#0087B1" fill-opacity="0.7"/>
<circle cx="157.5" cy="157.5" r="7.5" fill="#0087B1" fill-opacity="0.5"/>
<circle cx="217.5" cy="157.5" r="7.5" fill="#0087B1" fill-opacity="0.6"/>
<circle cx="187.5" cy="157.5" r="7.5" fill="#0087B1" fill-opacity="0.5"/>
<circle cx="97.5" cy="157.5" r="7.5" fill="#0087B1" fill-opacity="0.4"/>
<circle cx="127.5" cy="157.5" r="7.5" fill="#0087B1" fill-opacity="0.4"/>
<circle cx="7.5" cy="187.5" r="7.5" fill="#0087B1" fill-opacity="0.3"/>
<circle cx="67.5" cy="187.5" r="7.5" fill="#0087B1" fill-opacity="0.3"/>
<circle cx="37.5" cy="187.5" r="7.5" fill="#0087B1" fill-opacity="0.3"/>
<circle cx="307.5" cy="187.5" r="7.5" fill="#0087B1" fill-opacity="0.7"/>
<circle cx="367.5" cy="187.5" r="7.5" fill="#0087B1" fill-opacity="0.8"/>
<circle cx="337.5" cy="187.5" r="7.5" fill="#0087B1" fill-opacity="0.8"/>
<circle cx="397.5" cy="187.5" r="7.5" fill="#0087B1" fill-opacity="0.9"/>
<circle cx="427.5" cy="187.5" r="7.5" fill="#0087B1" fill-opacity="0.9"/>
<circle cx="487.5" cy="187.5" r="7.5" fill="#0087B1"/>
<circle cx="457.5" cy="187.5" r="7.5" fill="#0087B1"/>
<circle cx="247.5" cy="187.5" r="7.5" fill="#0087B1" fill-opacity="0.6"/>
<circle cx="277.5" cy="187.5" r="7.5" fill="#0087B1" fill-opacity="0.7"/>
<circle cx="157.5" cy="187.5" r="7.5" fill="#0087B1" fill-opacity="0.5"/>
<circle cx="217.5" cy="187.5" r="7.5" fill="#0087B1" fill-opacity="0.6"/>
<circle cx="187.5" cy="187.5" r="7.5" fill="#0087B1" fill-opacity="0.5"/>
<circle cx="97.5" cy="187.5" r="7.5" fill="#0087B1" fill-opacity="0.4"/>
<circle cx="127.5" cy="187.5" r="7.5" fill="#0087B1" fill-opacity="0.4"/>
<circle cx="7.5" cy="217.5" r="7.5" fill="#0087B1" fill-opacity="0.3"/>
<circle cx="67.5" cy="217.5" r="7.5" fill="#0087B1" fill-opacity="0.3"/>
<circle cx="37.5" cy="217.5" r="7.5" fill="#0087B1" fill-opacity="0.3"/>
<circle cx="307.5" cy="217.5" r="7.5" fill="#0087B1" fill-opacity="0.7"/>
<circle cx="367.5" cy="217.5" r="7.5" fill="#0087B1" fill-opacity="0.8"/>
<circle cx="337.5" cy="217.5" r="7.5" fill="#0087B1" fill-opacity="0.8"/>
<circle cx="397.5" cy="217.5" r="7.5" fill="#0087B1" fill-opacity="0.9"/>
<circle cx="427.5" cy="217.5" r="7.5" fill="#0087B1" fill-opacity="0.9"/>
<circle cx="487.5" cy="217.5" r="7.5" fill="#0087B1"/>
<circle cx="457.5" cy="217.5" r="7.5" fill="#0087B1"/>
<circle cx="247.5" cy="217.5" r="7.5" fill="#0087B1" fill-opacity="0.6"/>
<circle cx="277.5" cy="217.5" r="7.5" fill="#0087B1" fill-opacity="0.7"/>
<circle cx="157.5" cy="217.5" r="7.5" fill="#0087B1" fill-opacity="0.5"/>
<circle cx="217.5" cy="217.5" r="7.5" fill="#0087B1" fill-opacity="0.6"/>
<circle cx="187.5" cy="217.5" r="7.5" fill="#0087B1" fill-opacity="0.5"/>
<circle cx="97.5" cy="217.5" r="7.5" fill="#0087B1" fill-opacity="0.4"/>
<circle cx="127.5" cy="217.5" r="7.5" fill="#0087B1" fill-opacity="0.4"/>
<circle cx="7.5" cy="157.5" r="7.5" fill="#0087B1" fill-opacity="0.3"/>
<circle cx="67.5" cy="157.5" r="7.5" fill="#0087B1" fill-opacity="0.3"/>
<circle cx="37.5" cy="157.5" r="7.5" fill="#0087B1" fill-opacity="0.3"/>
<circle cx="307.5" cy="157.5" r="7.5" fill="#0087B1" fill-opacity="0.7"/>
<circle cx="367.5" cy="157.5" r="7.5" fill="#0087B1" fill-opacity="0.8"/>
<circle cx="337.5" cy="157.5" r="7.5" fill="#0087B1" fill-opacity="0.8"/>
<circle cx="397.5" cy="157.5" r="7.5" fill="#0087B1" fill-opacity="0.9"/>
<circle cx="427.5" cy="157.5" r="7.5" fill="#0087B1" fill-opacity="0.9"/>
<circle cx="487.5" cy="157.5" r="7.5" fill="#0087B1"/>
<circle cx="457.5" cy="157.5" r="7.5" fill="#0087B1"/>
<circle cx="247.5" cy="157.5" r="7.5" fill="#0087B1" fill-opacity="0.6"/>
<circle cx="277.5" cy="157.5" r="7.5" fill="#0087B1" fill-opacity="0.7"/>
<circle cx="157.5" cy="157.5" r="7.5" fill="#0087B1" fill-opacity="0.5"/>
<circle cx="217.5" cy="157.5" r="7.5" fill="#0087B1" fill-opacity="0.6"/>
<circle cx="187.5" cy="157.5" r="7.5" fill="#0087B1" fill-opacity="0.5"/>
<circle cx="97.5" cy="157.5" r="7.5" fill="#0087B1" fill-opacity="0.4"/>
<circle cx="127.5" cy="157.5" r="7.5" fill="#0087B1" fill-opacity="0.4"/>
<circle cx="7.5" cy="247.5" r="7.5" fill="#0087B1" fill-opacity="0.3"/>
<circle cx="67.5" cy="247.5" r="7.5" fill="#0087B1" fill-opacity="0.3"/>
<circle cx="37.5" cy="247.5" r="7.5" fill="#0087B1" fill-opacity="0.3"/>
<circle cx="307.5" cy="247.5" r="7.5" fill="#0087B1" fill-opacity="0.7"/>
<circle cx="367.5" cy="247.5" r="7.5" fill="#0087B1" fill-opacity="0.8"/>
<circle cx="337.5" cy="247.5" r="7.5" fill="#0087B1" fill-opacity="0.8"/>
<circle cx="397.5" cy="247.5" r="7.5" fill="#0087B1" fill-opacity="0.9"/>
<circle cx="427.5" cy="247.5" r="7.5" fill="#0087B1" fill-opacity="0.9"/>
<circle cx="487.5" cy="247.5" r="7.5" fill="#0087B1"/>
<circle cx="457.5" cy="247.5" r="7.5" fill="#0087B1"/>
<circle cx="247.5" cy="247.5" r="7.5" fill="#0087B1" fill-opacity="0.6"/>
<circle cx="277.5" cy="247.5" r="7.5" fill="#0087B1" fill-opacity="0.7"/>
<circle cx="157.5" cy="247.5" r="7.5" fill="#0087B1" fill-opacity="0.5"/>
<circle cx="217.5" cy="247.5" r="7.5" fill="#0087B1" fill-opacity="0.6"/>
<circle cx="187.5" cy="247.5" r="7.5" fill="#0087B1" fill-opacity="0.5"/>
<circle cx="97.5" cy="247.5" r="7.5" fill="#0087B1" fill-opacity="0.4"/>
<circle cx="127.5" cy="247.5" r="7.5" fill="#0087B1" fill-opacity="0.4"/>
<circle cx="7.5" cy="277.5" r="7.5" fill="#0087B1" fill-opacity="0.3"/>
<circle cx="67.5" cy="277.5" r="7.5" fill="#0087B1" fill-opacity="0.3"/>
<circle cx="37.5" cy="277.5" r="7.5" fill="#0087B1" fill-opacity="0.3"/>
<circle cx="307.5" cy="277.5" r="7.5" fill="#0087B1" fill-opacity="0.7"/>
<circle cx="367.5" cy="277.5" r="7.5" fill="#0087B1" fill-opacity="0.8"/>
<circle cx="337.5" cy="277.5" r="7.5" fill="#0087B1" fill-opacity="0.8"/>
<circle cx="397.5" cy="277.5" r="7.5" fill="#0087B1" fill-opacity="0.9"/>
<circle cx="427.5" cy="277.5" r="7.5" fill="#0087B1" fill-opacity="0.9"/>
<circle cx="487.5" cy="277.5" r="7.5" fill="#0087B1"/>
<circle cx="457.5" cy="277.5" r="7.5" fill="#0087B1"/>
<circle cx="247.5" cy="277.5" r="7.5" fill="#0087B1" fill-opacity="0.6"/>
<circle cx="277.5" cy="277.5" r="7.5" fill="#0087B1" fill-opacity="0.7"/>
<circle cx="157.5" cy="277.5" r="7.5" fill="#0087B1" fill-opacity="0.5"/>
<circle cx="217.5" cy="277.5" r="7.5" fill="#0087B1" fill-opacity="0.6"/>
<circle cx="187.5" cy="277.5" r="7.5" fill="#0087B1" fill-opacity="0.5"/>
<circle cx="97.5" cy="277.5" r="7.5" fill="#0087B1" fill-opacity="0.4"/>
<circle cx="127.5" cy="277.5" r="7.5" fill="#0087B1" fill-opacity="0.4"/>
<circle cx="7.5" cy="307.5" r="7.5" fill="#0087B1" fill-opacity="0.3"/>
<circle cx="67.5" cy="307.5" r="7.5" fill="#0087B1" fill-opacity="0.3"/>
<circle cx="37.5" cy="307.5" r="7.5" fill="#0087B1" fill-opacity="0.3"/>
<circle cx="307.5" cy="307.5" r="7.5" fill="#0087B1" fill-opacity="0.7"/>
<circle cx="367.5" cy="307.5" r="7.5" fill="#0087B1" fill-opacity="0.8"/>
<circle cx="337.5" cy="307.5" r="7.5" fill="#0087B1" fill-opacity="0.8"/>
<circle cx="397.5" cy="307.5" r="7.5" fill="#0087B1" fill-opacity="0.9"/>
<circle cx="427.5" cy="307.5" r="7.5" fill="#0087B1" fill-opacity="0.9"/>
<circle cx="487.5" cy="307.5" r="7.5" fill="#0087B1"/>
<circle cx="457.5" cy="307.5" r="7.5" fill="#0087B1"/>
<circle cx="247.5" cy="307.5" r="7.5" fill="#0087B1" fill-opacity="0.6"/>
<circle cx="277.5" cy="307.5" r="7.5" fill="#0087B1" fill-opacity="0.7"/>
<circle cx="157.5" cy="307.5" r="7.5" fill="#0087B1" fill-opacity="0.5"/>
<circle cx="217.5" cy="307.5" r="7.5" fill="#0087B1" fill-opacity="0.6"/>
<circle cx="187.5" cy="307.5" r="7.5" fill="#0087B1" fill-opacity="0.5"/>
<circle cx="97.5" cy="307.5" r="7.5" fill="#0087B1" fill-opacity="0.4"/>
<circle cx="127.5" cy="307.5" r="7.5" fill="#0087B1" fill-opacity="0.4"/>
<circle cx="7.5" cy="337.5" r="7.5" fill="#0087B1" fill-opacity="0.3"/>
<circle cx="67.5" cy="337.5" r="7.5" fill="#0087B1" fill-opacity="0.3"/>
<circle cx="37.5" cy="337.5" r="7.5" fill="#0087B1" fill-opacity="0.3"/>
<circle cx="307.5" cy="337.5" r="7.5" fill="#0087B1" fill-opacity="0.7"/>
<circle cx="367.5" cy="337.5" r="7.5" fill="#0087B1" fill-opacity="0.8"/>
<circle cx="337.5" cy="337.5" r="7.5" fill="#0087B1" fill-opacity="0.8"/>
<circle cx="397.5" cy="337.5" r="7.5" fill="#0087B1" fill-opacity="0.9"/>
<circle cx="427.5" cy="337.5" r="7.5" fill="#0087B1" fill-opacity="0.9"/>
<circle cx="487.5" cy="337.5" r="7.5" fill="#0087B1"/>
<circle cx="457.5" cy="337.5" r="7.5" fill="#0087B1"/>
<circle cx="247.5" cy="337.5" r="7.5" fill="#0087B1" fill-opacity="0.6"/>
<circle cx="277.5" cy="337.5" r="7.5" fill="#0087B1" fill-opacity="0.7"/>
<circle cx="157.5" cy="337.5" r="7.5" fill="#0087B1" fill-opacity="0.5"/>
<circle cx="217.5" cy="337.5" r="7.5" fill="#0087B1" fill-opacity="0.6"/>
<circle cx="187.5" cy="337.5" r="7.5" fill="#0087B1" fill-opacity="0.5"/>
<circle cx="97.5" cy="337.5" r="7.5" fill="#0087B1" fill-opacity="0.4"/>
<circle cx="127.5" cy="337.5" r="7.5" fill="#0087B1" fill-opacity="0.4"/>
<circle cx="7.5" cy="367.5" r="7.5" fill="#0087B1" fill-opacity="0.3"/>
<circle cx="67.5" cy="367.5" r="7.5" fill="#0087B1" fill-opacity="0.3"/>
<circle cx="37.5" cy="367.5" r="7.5" fill="#0087B1" fill-opacity="0.3"/>
<circle cx="307.5" cy="367.5" r="7.5" fill="#0087B1" fill-opacity="0.7"/>
<circle cx="367.5" cy="367.5" r="7.5" fill="#0087B1" fill-opacity="0.8"/>
<circle cx="337.5" cy="367.5" r="7.5" fill="#0087B1" fill-opacity="0.8"/>
<circle cx="397.5" cy="367.5" r="7.5" fill="#0087B1" fill-opacity="0.9"/>
<circle cx="427.5" cy="367.5" r="7.5" fill="#0087B1" fill-opacity="0.9"/>
<circle cx="487.5" cy="367.5" r="7.5" fill="#0087B1"/>
<circle cx="457.5" cy="367.5" r="7.5" fill="#0087B1"/>
<circle cx="247.5" cy="367.5" r="7.5" fill="#0087B1" fill-opacity="0.6"/>
<circle cx="277.5" cy="367.5" r="7.5" fill="#0087B1" fill-opacity="0.7"/>
<circle cx="157.5" cy="367.5" r="7.5" fill="#0087B1" fill-opacity="0.5"/>
<circle cx="217.5" cy="367.5" r="7.5" fill="#0087B1" fill-opacity="0.6"/>
<circle cx="187.5" cy="367.5" r="7.5" fill="#0087B1" fill-opacity="0.5"/>
<circle cx="97.5" cy="367.5" r="7.5" fill="#0087B1" fill-opacity="0.4"/>
<circle cx="127.5" cy="367.5" r="7.5" fill="#0087B1" fill-opacity="0.4"/>
<circle cx="7.5" cy="397.5" r="7.5" fill="#0087B1" fill-opacity="0.3"/>
<circle cx="67.5" cy="397.5" r="7.5" fill="#0087B1" fill-opacity="0.3"/>
<circle cx="37.5" cy="397.5" r="7.5" fill="#0087B1" fill-opacity="0.3"/>
<circle cx="307.5" cy="397.5" r="7.5" fill="#0087B1" fill-opacity="0.7"/>
<circle cx="367.5" cy="397.5" r="7.5" fill="#0087B1" fill-opacity="0.8"/>
<circle cx="337.5" cy="397.5" r="7.5" fill="#0087B1" fill-opacity="0.8"/>
<circle cx="397.5" cy="397.5" r="7.5" fill="#0087B1" fill-opacity="0.9"/>
<circle cx="427.5" cy="397.5" r="7.5" fill="#0087B1" fill-opacity="0.9"/>
<circle cx="487.5" cy="397.5" r="7.5" fill="#0087B1"/>
<circle cx="457.5" cy="397.5" r="7.5" fill="#0087B1"/>
<circle cx="247.5" cy="397.5" r="7.5" fill="#0087B1" fill-opacity="0.6"/>
<circle cx="277.5" cy="397.5" r="7.5" fill="#0087B1" fill-opacity="0.7"/>
<circle cx="157.5" cy="397.5" r="7.5" fill="#0087B1" fill-opacity="0.5"/>
<circle cx="217.5" cy="397.5" r="7.5" fill="#0087B1" fill-opacity="0.6"/>
<circle cx="187.5" cy="397.5" r="7.5" fill="#0087B1" fill-opacity="0.5"/>
<circle cx="97.5" cy="397.5" r="7.5" fill="#0087B1" fill-opacity="0.4"/>
<circle cx="127.5" cy="397.5" r="7.5" fill="#0087B1" fill-opacity="0.4"/>
<circle cx="7.5" cy="427.5" r="7.5" fill="#0087B1" fill-opacity="0.3"/>
<circle cx="67.5" cy="427.5" r="7.5" fill="#0087B1" fill-opacity="0.3"/>
<circle cx="37.5" cy="427.5" r="7.5" fill="#0087B1" fill-opacity="0.3"/>
<circle cx="307.5" cy="427.5" r="7.5" fill="#0087B1" fill-opacity="0.7"/>
<circle cx="367.5" cy="427.5" r="7.5" fill="#0087B1" fill-opacity="0.8"/>
<circle cx="337.5" cy="427.5" r="7.5" fill="#0087B1" fill-opacity="0.8"/>
<circle cx="397.5" cy="427.5" r="7.5" fill="#0087B1" fill-opacity="0.9"/>
<circle cx="427.5" cy="427.5" r="7.5" fill="#0087B1" fill-opacity="0.9"/>
<circle cx="487.5" cy="427.5" r="7.5" fill="#0087B1"/>
<circle cx="457.5" cy="427.5" r="7.5" fill="#0087B1"/>
<circle cx="247.5" cy="427.5" r="7.5" fill="#0087B1" fill-opacity="0.6"/>
<circle cx="277.5" cy="427.5" r="7.5" fill="#0087B1" fill-opacity="0.7"/>
<circle cx="157.5" cy="427.5" r="7.5" fill="#0087B1" fill-opacity="0.5"/>
<circle cx="217.5" cy="427.5" r="7.5" fill="#0087B1" fill-opacity="0.6"/>
<circle cx="187.5" cy="427.5" r="7.5" fill="#0087B1" fill-opacity="0.5"/>
<circle cx="97.5" cy="427.5" r="7.5" fill="#0087B1" fill-opacity="0.4"/>
<circle cx="127.5" cy="427.5" r="7.5" fill="#0087B1" fill-opacity="0.4"/>
<circle cx="7.5" cy="367.5" r="7.5" fill="#0087B1" fill-opacity="0.3"/>
<circle cx="67.5" cy="367.5" r="7.5" fill="#0087B1" fill-opacity="0.3"/>
<circle cx="37.5" cy="367.5" r="7.5" fill="#0087B1" fill-opacity="0.3"/>
<circle cx="307.5" cy="367.5" r="7.5" fill="#0087B1" fill-opacity="0.7"/>
<circle cx="367.5" cy="367.5" r="7.5" fill="#0087B1" fill-opacity="0.8"/>
<circle cx="337.5" cy="367.5" r="7.5" fill="#0087B1" fill-opacity="0.8"/>
<circle cx="397.5" cy="367.5" r="7.5" fill="#0087B1" fill-opacity="0.9"/>
<circle cx="427.5" cy="367.5" r="7.5" fill="#0087B1" fill-opacity="0.9"/>
<circle cx="487.5" cy="367.5" r="7.5" fill="#0087B1"/>
<circle cx="457.5" cy="367.5" r="7.5" fill="#0087B1"/>
<circle cx="247.5" cy="367.5" r="7.5" fill="#0087B1" fill-opacity="0.6"/>
<circle cx="277.5" cy="367.5" r="7.5" fill="#0087B1" fill-opacity="0.7"/>
<circle cx="157.5" cy="367.5" r="7.5" fill="#0087B1" fill-opacity="0.5"/>
<circle cx="217.5" cy="367.5" r="7.5" fill="#0087B1" fill-opacity="0.6"/>
<circle cx="187.5" cy="367.5" r="7.5" fill="#0087B1" fill-opacity="0.5"/>
<circle cx="97.5" cy="367.5" r="7.5" fill="#0087B1" fill-opacity="0.4"/>
<circle cx="127.5" cy="367.5" r="7.5" fill="#0087B1" fill-opacity="0.4"/>
<circle cx="7.5" cy="457.5" r="7.5" fill="#0087B1" fill-opacity="0.3"/>
<circle cx="67.5" cy="457.5" r="7.5" fill="#0087B1" fill-opacity="0.3"/>
<circle cx="37.5" cy="457.5" r="7.5" fill="#0087B1" fill-opacity="0.3"/>
<circle cx="307.5" cy="457.5" r="7.5" fill="#0087B1" fill-opacity="0.7"/>
<circle cx="367.5" cy="457.5" r="7.5" fill="#0087B1" fill-opacity="0.8"/>
<circle cx="337.5" cy="457.5" r="7.5" fill="#0087B1" fill-opacity="0.8"/>
<circle cx="397.5" cy="457.5" r="7.5" fill="#0087B1" fill-opacity="0.9"/>
<circle cx="427.5" cy="457.5" r="7.5" fill="#0087B1" fill-opacity="0.9"/>
<circle cx="487.5" cy="457.5" r="7.5" fill="#0087B1"/>
<circle cx="457.5" cy="457.5" r="7.5" fill="#0087B1"/>
<circle cx="247.5" cy="457.5" r="7.5" fill="#0087B1" fill-opacity="0.6"/>
<circle cx="277.5" cy="457.5" r="7.5" fill="#0087B1" fill-opacity="0.7"/>
<circle cx="157.5" cy="457.5" r="7.5" fill="#0087B1" fill-opacity="0.5"/>
<circle cx="217.5" cy="457.5" r="7.5" fill="#0087B1" fill-opacity="0.6"/>
<circle cx="187.5" cy="457.5" r="7.5" fill="#0087B1" fill-opacity="0.5"/>
<circle cx="97.5" cy="457.5" r="7.5" fill="#0087B1" fill-opacity="0.4"/>
<circle cx="127.5" cy="457.5" r="7.5" fill="#0087B1" fill-opacity="0.4"/>
<circle cx="7.5" cy="487.5" r="7.5" fill="#0087B1" fill-opacity="0.3"/>
<circle cx="67.5" cy="487.5" r="7.5" fill="#0087B1" fill-opacity="0.3"/>
<circle cx="37.5" cy="487.5" r="7.5" fill="#0087B1" fill-opacity="0.3"/>
<circle cx="307.5" cy="487.5" r="7.5" fill="#0087B1" fill-opacity="0.7"/>
<circle cx="367.5" cy="487.5" r="7.5" fill="#0087B1" fill-opacity="0.8"/>
<circle cx="337.5" cy="487.5" r="7.5" fill="#0087B1" fill-opacity="0.8"/>
<circle cx="397.5" cy="487.5" r="7.5" fill="#0087B1" fill-opacity="0.9"/>
<circle cx="427.5" cy="487.5" r="7.5" fill="#0087B1" fill-opacity="0.9"/>
<circle cx="487.5" cy="487.5" r="7.5" fill="#0087B1"/>
<circle cx="457.5" cy="487.5" r="7.5" fill="#0087B1"/>
<circle cx="247.5" cy="487.5" r="7.5" fill="#0087B1" fill-opacity="0.6"/>
<circle cx="277.5" cy="487.5" r="7.5" fill="#0087B1" fill-opacity="0.7"/>
<circle cx="157.5" cy="487.5" r="7.5" fill="#0087B1" fill-opacity="0.5"/>
<circle cx="217.5" cy="487.5" r="7.5" fill="#0087B1" fill-opacity="0.6"/>
<circle cx="187.5" cy="487.5" r="7.5" fill="#0087B1" fill-opacity="0.5"/>
<circle cx="97.5" cy="487.5" r="7.5" fill="#0087B1" fill-opacity="0.4"/>
<circle cx="127.5" cy="487.5" r="7.5" fill="#0087B1" fill-opacity="0.4"/>
<circle cx="7.5" cy="517.5" r="7.5" fill="#0087B1" fill-opacity="0.3"/>
<circle cx="67.5" cy="517.5" r="7.5" fill="#0087B1" fill-opacity="0.3"/>
<circle cx="37.5" cy="517.5" r="7.5" fill="#0087B1" fill-opacity="0.3"/>
<circle cx="307.5" cy="517.5" r="7.5" fill="#0087B1" fill-opacity="0.7"/>
<circle cx="367.5" cy="517.5" r="7.5" fill="#0087B1" fill-opacity="0.8"/>
<circle cx="337.5" cy="517.5" r="7.5" fill="#0087B1" fill-opacity="0.8"/>
<circle cx="397.5" cy="517.5" r="7.5" fill="#0087B1" fill-opacity="0.9"/>
<circle cx="427.5" cy="517.5" r="7.5" fill="#0087B1" fill-opacity="0.9"/>
<circle cx="487.5" cy="517.5" r="7.5" fill="#0087B1"/>
<circle cx="457.5" cy="517.5" r="7.5" fill="#0087B1"/>
<circle cx="247.5" cy="517.5" r="7.5" fill="#0087B1" fill-opacity="0.6"/>
<circle cx="277.5" cy="517.5" r="7.5" fill="#0087B1" fill-opacity="0.7"/>
<circle cx="157.5" cy="517.5" r="7.5" fill="#0087B1" fill-opacity="0.5"/>
<circle cx="217.5" cy="517.5" r="7.5" fill="#0087B1" fill-opacity="0.6"/>
<circle cx="187.5" cy="517.5" r="7.5" fill="#0087B1" fill-opacity="0.5"/>
<circle cx="97.5" cy="517.5" r="7.5" fill="#0087B1" fill-opacity="0.4"/>
<circle cx="127.5" cy="517.5" r="7.5" fill="#0087B1" fill-opacity="0.4"/>
<circle cx="7.5" cy="547.5" r="7.5" fill="#0087B1" fill-opacity="0.3"/>
<circle cx="67.5" cy="547.5" r="7.5" fill="#0087B1" fill-opacity="0.3"/>
<circle cx="37.5" cy="547.5" r="7.5" fill="#0087B1" fill-opacity="0.3"/>
<circle cx="307.5" cy="547.5" r="7.5" fill="#0087B1" fill-opacity="0.7"/>
<circle cx="367.5" cy="547.5" r="7.5" fill="#0087B1" fill-opacity="0.8"/>
<circle cx="337.5" cy="547.5" r="7.5" fill="#0087B1" fill-opacity="0.8"/>
<circle cx="397.5" cy="547.5" r="7.5" fill="#0087B1" fill-opacity="0.9"/>
<circle cx="427.5" cy="547.5" r="7.5" fill="#0087B1" fill-opacity="0.9"/>
<circle cx="487.5" cy="547.5" r="7.5" fill="#0087B1"/>
<circle cx="457.5" cy="547.5" r="7.5" fill="#0087B1"/>
<circle cx="247.5" cy="547.5" r="7.5" fill="#0087B1" fill-opacity="0.6"/>
<circle cx="277.5" cy="547.5" r="7.5" fill="#0087B1" fill-opacity="0.7"/>
<circle cx="157.5" cy="547.5" r="7.5" fill="#0087B1" fill-opacity="0.5"/>
<circle cx="217.5" cy="547.5" r="7.5" fill="#0087B1" fill-opacity="0.6"/>
<circle cx="187.5" cy="547.5" r="7.5" fill="#0087B1" fill-opacity="0.5"/>
<circle cx="97.5" cy="547.5" r="7.5" fill="#0087B1" fill-opacity="0.4"/>
<circle cx="127.5" cy="547.5" r="7.5" fill="#0087B1" fill-opacity="0.4"/>
<circle cx="7.5" cy="577.5" r="7.5" fill="#0087B1" fill-opacity="0.3"/>
<circle cx="67.5" cy="577.5" r="7.5" fill="#0087B1" fill-opacity="0.3"/>
<circle cx="37.5" cy="577.5" r="7.5" fill="#0087B1" fill-opacity="0.3"/>
<circle cx="307.5" cy="577.5" r="7.5" fill="#0087B1" fill-opacity="0.7"/>
<circle cx="367.5" cy="577.5" r="7.5" fill="#0087B1" fill-opacity="0.8"/>
<circle cx="337.5" cy="577.5" r="7.5" fill="#0087B1" fill-opacity="0.8"/>
<circle cx="397.5" cy="577.5" r="7.5" fill="#0087B1" fill-opacity="0.9"/>
<circle cx="427.5" cy="577.5" r="7.5" fill="#0087B1" fill-opacity="0.9"/>
<circle cx="487.5" cy="577.5" r="7.5" fill="#0087B1"/>
<circle cx="457.5" cy="577.5" r="7.5" fill="#0087B1"/>
<circle cx="247.5" cy="577.5" r="7.5" fill="#0087B1" fill-opacity="0.6"/>
<circle cx="277.5" cy="577.5" r="7.5" fill="#0087B1" fill-opacity="0.7"/>
<circle cx="157.5" cy="577.5" r="7.5" fill="#0087B1" fill-opacity="0.5"/>
<circle cx="217.5" cy="577.5" r="7.5" fill="#0087B1" fill-opacity="0.6"/>
<circle cx="187.5" cy="577.5" r="7.5" fill="#0087B1" fill-opacity="0.5"/>
<circle cx="97.5" cy="577.5" r="7.5" fill="#0087B1" fill-opacity="0.4"/>
<circle cx="127.5" cy="577.5" r="7.5" fill="#0087B1" fill-opacity="0.4"/>
</svg>
