<svg width="150" height="60" viewBox="0 0 150 60" fill="none" xmlns="http://www.w3.org/2000/svg">
<rect width="150" height="60" fill="white"/>
<path d="M33.1449 53V43.5455H36.3395C37.0781 43.5455 37.6844 43.6716 38.1584 43.924C38.6323 44.1733 38.9832 44.5165 39.2109 44.9535C39.4387 45.3905 39.5526 45.8875 39.5526 46.4446C39.5526 47.0017 39.4387 47.4956 39.2109 47.9265C38.9832 48.3574 38.6339 48.6959 38.163 48.9421C37.6921 49.1853 37.0904 49.3068 36.358 49.3068H33.7727V48.2727H36.321C36.8258 48.2727 37.232 48.1989 37.5398 48.0511C37.8506 47.9034 38.0753 47.6941 38.2138 47.4233C38.3554 47.1494 38.4261 46.8232 38.4261 46.4446C38.4261 46.0661 38.3554 45.7352 38.2138 45.4521C38.0722 45.1689 37.846 44.9504 37.5352 44.7965C37.2243 44.6396 36.8134 44.5611 36.3026 44.5611H34.2898V53H33.1449ZM37.5952 48.7528L39.9219 53H38.5923L36.3026 48.7528H37.5952ZM42.7603 53V43.5455H48.4663V44.5611H43.9052V47.7557H48.1708V48.7713H43.9052V51.9844H48.5401V53H42.7603ZM59.327 43.5455V53H58.2191L53.0671 45.5767H52.9747V53H51.8298V43.5455H52.9378L58.1083 50.9872H58.2006V43.5455H59.327ZM70.8952 48.2727C70.8952 49.2699 70.7152 50.1316 70.3551 50.858C69.995 51.5843 69.501 52.1444 68.8732 52.5384C68.2453 52.9323 67.5283 53.1293 66.7219 53.1293C65.9156 53.1293 65.1985 52.9323 64.5706 52.5384C63.9428 52.1444 63.4488 51.5843 63.0887 50.858C62.7287 50.1316 62.5486 49.2699 62.5486 48.2727C62.5486 47.2756 62.7287 46.4138 63.0887 45.6875C63.4488 44.9612 63.9428 44.401 64.5706 44.0071C65.1985 43.6132 65.9156 43.4162 66.7219 43.4162C67.5283 43.4162 68.2453 43.6132 68.8732 44.0071C69.501 44.401 69.995 44.9612 70.3551 45.6875C70.7152 46.4138 70.8952 47.2756 70.8952 48.2727ZM69.7873 48.2727C69.7873 47.4541 69.6503 46.7631 69.3764 46.1999C69.1056 45.6367 68.7378 45.2105 68.273 44.9212C67.8114 44.6319 67.2944 44.4872 66.7219 44.4872C66.1495 44.4872 65.6309 44.6319 65.1662 44.9212C64.7045 45.2105 64.3367 45.6367 64.0628 46.1999C63.792 46.7631 63.6566 47.4541 63.6566 48.2727C63.6566 49.0914 63.792 49.7823 64.0628 50.3455C64.3367 50.9087 64.7045 51.335 65.1662 51.6243C65.6309 51.9136 66.1495 52.0582 66.7219 52.0582C67.2944 52.0582 67.8114 51.9136 68.273 51.6243C68.7378 51.335 69.1056 50.9087 69.3764 50.3455C69.6503 49.7823 69.7873 49.0914 69.7873 48.2727ZM74.0637 43.5455L76.8705 51.5043H76.9813L79.7882 43.5455H80.9884L77.5169 53H76.335L72.8634 43.5455H74.0637ZM83.3364 53H82.1361L85.6077 43.5455H86.7895L90.2611 53H89.0608L86.2355 45.0412H86.1617L83.3364 53ZM83.7796 49.3068H88.6176V50.3224H83.7796V49.3068ZM91.4122 44.5611V43.5455H98.5031V44.5611H95.5301V53H94.3852V44.5611H91.4122ZM102.715 43.5455V53H101.57V43.5455H102.715ZM114.288 48.2727C114.288 49.2699 114.108 50.1316 113.748 50.858C113.388 51.5843 112.894 52.1444 112.266 52.5384C111.638 52.9323 110.921 53.1293 110.114 53.1293C109.308 53.1293 108.591 52.9323 107.963 52.5384C107.335 52.1444 106.841 51.5843 106.481 50.858C106.121 50.1316 105.941 49.2699 105.941 48.2727C105.941 47.2756 106.121 46.4138 106.481 45.6875C106.841 44.9612 107.335 44.401 107.963 44.0071C108.591 43.6132 109.308 43.4162 110.114 43.4162C110.921 43.4162 111.638 43.6132 112.266 44.0071C112.894 44.401 113.388 44.9612 113.748 45.6875C114.108 46.4138 114.288 47.2756 114.288 48.2727ZM113.18 48.2727C113.18 47.4541 113.043 46.7631 112.769 46.1999C112.498 45.6367 112.13 45.2105 111.666 44.9212C111.204 44.6319 110.687 44.4872 110.114 44.4872C109.542 44.4872 109.023 44.6319 108.559 44.9212C108.097 45.2105 107.729 45.6367 107.455 46.1999C107.185 46.7631 107.049 47.4541 107.049 48.2727C107.049 49.0914 107.185 49.7823 107.455 50.3455C107.729 50.9087 108.097 51.335 108.559 51.6243C109.023 51.9136 109.542 52.0582 110.114 52.0582C110.687 52.0582 111.204 51.9136 111.666 51.6243C112.13 51.335 112.498 50.9087 112.769 50.3455C113.043 49.7823 113.18 49.0914 113.18 48.2727ZM125.01 43.5455V53H123.902L118.75 45.5767H118.658V53H117.513V43.5455H118.621L123.791 50.9872H123.884V43.5455H125.01ZM133.771 45.9091C133.716 45.4413 133.491 45.0781 133.097 44.8196C132.703 44.5611 132.22 44.4318 131.648 44.4318C131.229 44.4318 130.863 44.4995 130.549 44.6349C130.238 44.7704 129.995 44.9566 129.82 45.1935C129.647 45.4305 129.561 45.6998 129.561 46.0014C129.561 46.2538 129.621 46.4708 129.741 46.6523C129.864 46.8308 130.021 46.9801 130.212 47.1001C130.403 47.2171 130.603 47.314 130.812 47.391C131.022 47.4648 131.214 47.5249 131.389 47.571L132.35 47.8295C132.596 47.8942 132.87 47.9834 133.171 48.0973C133.476 48.2112 133.767 48.3666 134.044 48.5636C134.324 48.7575 134.555 49.0067 134.736 49.3114C134.918 49.6161 135.009 49.9901 135.009 50.4332C135.009 50.9441 134.875 51.4058 134.607 51.8182C134.342 52.2306 133.955 52.5584 133.444 52.8015C132.936 53.0446 132.319 53.1662 131.592 53.1662C130.915 53.1662 130.329 53.0569 129.834 52.8384C129.341 52.6199 128.953 52.3152 128.67 51.9244C128.39 51.5335 128.232 51.0795 128.195 50.5625H129.377C129.407 50.9195 129.527 51.215 129.737 51.4489C129.949 51.6797 130.217 51.852 130.54 51.9659C130.866 52.0767 131.217 52.1321 131.592 52.1321C132.029 52.1321 132.422 52.0613 132.77 51.9197C133.117 51.7751 133.393 51.575 133.596 51.3196C133.799 51.0611 133.901 50.7595 133.901 50.4148C133.901 50.1009 133.813 49.8454 133.638 49.6484C133.462 49.4515 133.231 49.2914 132.945 49.1683C132.659 49.0452 132.35 48.9375 132.017 48.8452L130.854 48.5128C130.115 48.3004 129.53 47.9973 129.1 47.6033C128.669 47.2094 128.453 46.6939 128.453 46.0568C128.453 45.5275 128.596 45.0658 128.883 44.6719C129.172 44.2749 129.56 43.9671 130.046 43.7486C130.535 43.527 131.082 43.4162 131.685 43.4162C132.294 43.4162 132.836 43.5254 133.31 43.744C133.784 43.9594 134.159 44.2549 134.436 44.6303C134.716 45.0058 134.864 45.4321 134.879 45.9091H133.771Z" fill="black"/>
<path d="M3.90234 8.52539H18.5801C20.373 8.52539 21.9316 8.71875 23.2559 9.10547C24.5918 9.48047 25.6992 10.002 26.5781 10.6699C27.457 11.3379 28.1074 12.1348 28.5293 13.0605C28.9629 13.9746 29.1797 14.9648 29.1797 16.0312C29.1797 17.7773 28.6289 19.3066 27.5273 20.6191C28.793 21.3691 29.7363 22.3418 30.3574 23.5371C30.9785 24.7324 31.2891 26.0918 31.2891 27.6152C31.2891 28.8926 31.0723 30.0469 30.6387 31.0781C30.2168 32.1094 29.5664 32.9941 28.6875 33.7324C27.8203 34.459 26.7188 35.0215 25.3828 35.4199C24.0586 35.8066 22.4941 36 20.6895 36H3.90234V8.52539ZM20.7246 19.0723C21.2051 19.0723 21.6738 19.0898 22.1309 19.125C22.916 18.375 23.3086 17.5195 23.3086 16.5586C23.3086 15.5625 22.916 14.7949 22.1309 14.2559C21.3574 13.7051 20.2207 13.4297 18.7207 13.4297H9.47461V19.0723H20.7246ZM20.8301 31.1484C22.3301 31.1484 23.4668 30.8262 24.2402 30.1816C25.0254 29.5371 25.418 28.6289 25.418 27.457C25.418 26.2852 25.0254 25.3711 24.2402 24.7148C23.4668 24.0586 22.3301 23.7305 20.8301 23.7305H9.47461V31.1484H20.8301ZM35.332 22.1836C35.332 20.1094 35.7129 18.2109 36.4746 16.4883C37.2363 14.7656 38.3027 13.2891 39.6738 12.0586C41.0566 10.8164 42.709 9.85547 44.6309 9.17578C46.5645 8.49609 48.7031 8.15625 51.0469 8.15625C53.3789 8.15625 55.5117 8.49609 57.4453 9.17578C59.3789 9.85547 61.0312 10.8164 62.4023 12.0586C63.7852 13.2891 64.8574 14.7656 65.6191 16.4883C66.3809 18.2109 66.7617 20.1094 66.7617 22.1836C66.7617 24.2695 66.3809 26.1855 65.6191 27.9316C64.8574 29.666 63.7852 31.1602 62.4023 32.4141C61.0312 33.668 59.3789 34.6465 57.4453 35.3496C55.5117 36.041 53.3789 36.3867 51.0469 36.3867C48.7031 36.3867 46.5645 36.041 44.6309 35.3496C42.709 34.6465 41.0566 33.668 39.6738 32.4141C38.3027 31.1602 37.2363 29.666 36.4746 27.9316C35.7129 26.1855 35.332 24.2695 35.332 22.1836ZM40.9043 22.1836C40.9043 23.6016 41.1562 24.8789 41.6602 26.0156C42.1758 27.1523 42.8848 28.125 43.7871 28.9336C44.7012 29.7305 45.7734 30.3457 47.0039 30.7793C48.2461 31.2129 49.5938 31.4297 51.0469 31.4297C52.5 31.4297 53.8418 31.2129 55.0723 30.7793C56.3145 30.3457 57.3867 29.7305 58.2891 28.9336C59.1914 28.125 59.9004 27.1523 60.416 26.0156C60.9316 24.8789 61.1895 23.6016 61.1895 22.1836C61.1895 20.7656 60.9316 19.4941 60.416 18.3691C59.9004 17.2441 59.1914 16.2949 58.2891 15.5215C57.3867 14.7363 56.3145 14.1387 55.0723 13.7285C53.8418 13.3184 52.5 13.1133 51.0469 13.1133C49.5938 13.1133 48.2461 13.3184 47.0039 13.7285C45.7734 14.1387 44.7012 14.7363 43.7871 15.5215C42.8848 16.2949 42.1758 17.2441 41.6602 18.3691C41.1562 19.4941 40.9043 20.7656 40.9043 22.1836ZM72.9492 8.52539H86.9238C89.0332 8.52539 90.8613 8.74805 92.4082 9.19336C93.9551 9.62695 95.2383 10.2598 96.2578 11.0918C97.2773 11.9238 98.0332 12.9375 98.5254 14.1328C99.0293 15.3281 99.2812 16.6816 99.2812 18.1934C99.2812 19.2129 99.1582 20.1855 98.9121 21.1113C98.666 22.0254 98.2852 22.8691 97.7695 23.6426C97.2656 24.416 96.627 25.1074 95.8535 25.7168C95.0801 26.3145 94.1719 26.8125 93.1289 27.2109L99.1055 36H92.2852L87.1172 28.1953H86.959L78.5215 28.1777V36H72.9492V8.52539ZM87.0645 23.3613C88.1191 23.3613 89.0391 23.2383 89.8242 22.9922C90.6211 22.7461 91.2832 22.4004 91.8105 21.9551C92.3496 21.5098 92.748 20.9707 93.0059 20.3379C93.2754 19.6934 93.4102 18.9785 93.4102 18.1934C93.4102 16.6582 92.8828 15.4746 91.8281 14.6426C90.7734 13.7988 89.1855 13.377 87.0645 13.377H78.5215V23.3613H87.0645ZM115.26 8.52539H121.166L134.455 36H128.602L126.404 31.377H110.355L108.229 36H102.357L115.26 8.52539ZM124.207 26.7891L118.266 14.3086L112.482 26.7891H124.207Z" fill="black"/>
</svg>
