<svg width="97" height="96" viewBox="0 0 97 96" fill="none" xmlns="http://www.w3.org/2000/svg">
<g clip-path="url(#clip0_205_257)">
<path d="M65.1349 40.0635L77.6111 27.5873L90.0873 40.0635M38.1032 40.0635C40.0147 40.0635 41.9074 39.687 43.6734 38.9555C45.4393 38.224 47.0439 37.1519 48.3955 35.8003C49.7471 34.4487 50.8193 32.8441 51.5508 31.0781C52.2823 29.3122 52.6588 27.4194 52.6588 25.5079C52.6588 23.5965 52.2823 21.7037 51.5508 19.9378C50.8193 18.1718 49.7471 16.5672 48.3955 15.2156C47.0439 13.864 45.4393 12.7919 43.6734 12.0604C41.9074 11.3289 40.0147 10.9524 38.1032 10.9524C34.2428 10.9524 30.5406 12.4859 27.8109 15.2156C25.0812 17.9453 23.5476 21.6476 23.5476 25.5079C23.5476 29.3683 25.0812 33.0706 27.8109 35.8003C30.5406 38.53 34.2428 40.0635 38.1032 40.0635ZM6.91272 83.3143V85.8095H69.2937V83.3143C69.2937 73.9987 69.2937 69.341 67.4805 65.7811C65.8856 62.6512 63.3409 60.1065 60.211 58.5116C56.6511 56.6984 51.9934 56.6984 42.6778 56.6984H33.5286C24.213 56.6984 19.5553 56.6984 15.9954 58.5116C12.8655 60.1065 10.3207 62.6512 8.72593 65.7811C6.91272 69.341 6.91272 73.9987 6.91272 83.3143Z" stroke="url(#paint0_linear_205_257)" stroke-width="8" stroke-linecap="round" stroke-linejoin="round"/>
</g>
<defs>
<linearGradient id="paint0_linear_205_257" x1="48.5" y1="10.9524" x2="48.5" y2="85.8095" gradientUnits="userSpaceOnUse">
<stop stop-color="#065A97"/>
<stop offset="1" stop-color="#012F50"/>
</linearGradient>
<clipPath id="clip0_205_257">
<rect width="96" height="96" fill="white" transform="translate(0.5)"/>
</clipPath>
</defs>
</svg>
