<svg width="97" height="96" viewBox="0 0 97 96" fill="none" xmlns="http://www.w3.org/2000/svg">
<g clip-path="url(#clip0_205_130)">
<path d="M87.3312 71.128L80.5625 52.603V52.2467L51.4094 23.0936V15.7311C51.3992 14.5534 51.178 13.387 50.7562 12.2873C50.2943 11.2062 49.6202 10.2287 48.7737 9.4128C47.9272 8.5969 46.9255 7.95916 45.8281 7.53734C44.7343 7.10109 43.5612 6.89883 42.3844 6.94359C41.2282 6.9357 40.0819 7.15761 39.0122 7.59642C37.9425 8.03524 36.9707 8.68223 36.1531 9.4998C35.3355 10.3174 34.6885 11.2892 34.2497 12.3589C33.8109 13.4287 33.589 14.5749 33.5969 15.7311V35.0873L15.4281 52.8998C13.7887 54.5847 12.8715 56.8428 12.8715 59.1936C12.8715 61.5444 13.7887 63.8025 15.4281 65.4873L36.9813 87.0405C37.8125 87.8777 38.8041 88.5427 39.8906 88.9998C42.0626 89.8718 44.4874 89.8718 46.6594 88.9998C47.7487 88.5446 48.7374 87.8788 49.5688 87.0405L78.8406 57.828L74.9219 70.8905C74.7442 71.7922 74.7442 72.72 74.9219 73.6217C75.1178 74.5242 75.5037 75.3792 76.05 76.1155C76.6319 76.8339 77.3325 77.4395 78.1281 77.8967C78.9594 78.3123 79.8737 78.5498 80.8 78.6092C81.7796 78.6694 82.7588 78.4858 83.65 78.0748C84.5367 77.674 85.3265 77.0867 85.9656 76.353C86.6161 75.6074 87.0657 74.7082 87.2719 73.7405C87.4619 72.8795 87.4797 71.9948 87.3312 71.128ZM39.8313 15.7311C39.7442 15.34 39.7442 14.9346 39.8313 14.5436C39.9983 14.1626 40.2407 13.8192 40.5437 13.5342C40.8656 13.2799 41.2265 13.0794 41.6125 12.9405C42.0234 12.8522 42.4484 12.8522 42.8594 12.9405C43.58 12.9962 44.2556 13.3128 44.7594 13.8311C45.2259 14.3766 45.4791 15.0727 45.4719 15.7905V23.2717L39.5344 29.2092L39.8313 15.7311ZM45.7687 83.1217C45.5179 83.4223 45.1893 83.6482 44.8188 83.7748C44.4634 83.9319 44.0791 84.013 43.6906 84.013C43.3021 84.013 42.9179 83.9319 42.5625 83.7748C42.1921 83.648 41.8636 83.4221 41.6125 83.1217L20.0594 61.628C19.7811 61.352 19.5603 61.0236 19.4095 60.6619C19.2588 60.3001 19.1812 59.9121 19.1812 59.5202C19.1812 59.1282 19.2588 58.7402 19.4095 58.3784C19.5603 58.0167 19.7811 57.6883 20.0594 57.4123L45.8875 31.5842V48.5061C45.4351 48.9207 45.0746 49.4255 44.8291 49.988C44.5837 50.5504 44.4588 51.1581 44.4625 51.7717C44.3901 52.5532 44.5255 53.3399 44.855 54.0521C45.1845 54.7644 45.6963 55.377 46.3387 55.8278C46.9811 56.2785 47.7313 56.5516 48.5131 56.6191C49.295 56.6867 50.0809 56.5465 50.7911 56.2126C51.5013 55.8787 52.1107 55.3631 52.5575 54.7179C53.0044 54.0728 53.2727 53.321 53.3355 52.5387C53.3983 51.7564 53.2532 50.9714 52.9149 50.2633C52.5767 49.5551 52.0573 48.9489 51.4094 48.5061V31.703L74.2688 54.6811L45.7687 83.1217Z" fill="url(#paint0_linear_205_130)"/>
</g>
<defs>
<linearGradient id="paint0_linear_205_130" x1="50.1508" y1="6.9375" x2="50.1508" y2="89.6538" gradientUnits="userSpaceOnUse">
<stop stop-color="#065A97"/>
<stop offset="1" stop-color="#012F50"/>
</linearGradient>
<clipPath id="clip0_205_130">
<rect width="96" height="96" fill="white" transform="translate(0.5)"/>
</clipPath>
</defs>
</svg>
