<svg width="97" height="96" viewBox="0 0 97 96" fill="none" xmlns="http://www.w3.org/2000/svg">
<g clip-path="url(#clip0_205_159)">
<path d="M37.9341 74.2518C35.629 81.2525 30.0796 86.375 21.9263 89.107C18.2588 90.3175 14.4325 90.9791 10.5715 91.0706C9.66579 91.0706 8.79718 90.7108 8.15674 90.0704C7.51631 89.4299 7.15652 88.5613 7.15652 87.6556C7.24794 83.7946 7.90963 79.9683 9.12013 76.3008C11.8521 68.1475 16.9746 62.5981 23.9753 60.293C24.4091 60.1025 24.8778 60.0044 25.3516 60.0048C25.8254 60.0053 26.2939 60.1043 26.7273 60.2956C27.1607 60.4869 27.5496 60.7663 27.8692 61.116C28.1889 61.4658 28.4322 61.8782 28.5838 62.327C28.7354 62.7759 28.792 63.2514 28.7499 63.7233C28.7077 64.1952 28.5679 64.6532 28.3392 65.0681C28.1105 65.4831 27.798 65.8459 27.4215 66.1335C27.045 66.4211 26.6128 66.6273 26.1524 66.7388C17.743 69.5562 13.4742 79.476 12.6632 84.7266C17.9137 83.9155 28.6709 80.4841 31.4883 72.0747C31.8315 71.293 32.4551 70.6683 33.2362 70.3236C34.0172 69.9789 34.899 69.9392 35.7078 70.2124C36.5167 70.4855 37.1938 71.0518 37.6059 71.7995C38.018 72.5471 38.1351 73.4221 37.9341 74.2518ZM80.5787 41.7667L76.7795 45.6086V71.7759C76.7672 73.5843 76.047 75.3159 74.7732 76.5996L60.9425 90.3876C60.3153 91.0299 59.5646 91.5387 58.7356 91.8835C57.9067 92.2283 57.0166 92.4019 56.1189 92.3939C55.4526 92.3992 54.7898 92.2983 54.1552 92.0951C52.967 91.7391 51.8981 91.0663 51.0633 90.1488C50.2285 89.2312 49.6594 88.1037 49.4169 86.8872L46.0447 70.0257L28.2014 52.1824L11.3399 48.8101C10.1234 48.5677 8.99584 47.9986 8.07833 47.1638C7.16083 46.329 6.48798 45.2601 6.13202 44.0718C5.77325 42.8921 5.74264 41.637 6.04347 40.4412C6.3443 39.2453 6.96521 38.1541 7.83951 37.2846L21.6275 23.4539C22.9112 22.1801 24.6428 21.4599 26.4512 21.4476H52.6185L56.4604 17.6484C68.6689 5.43983 81.1763 5.78133 86 6.50702C87.4464 6.70715 88.7879 7.3742 89.8204 8.40671C90.8529 9.43922 91.5199 10.7807 91.7201 12.2271C92.4458 17.0508 92.7873 29.5582 80.5787 41.7667ZM12.6632 42.1082L28.7563 45.3098L45.7885 28.2775L26.4512 26.6028L12.6632 42.1082ZM33.7954 49.5968L48.486 65.0681L76.7795 38.0998C80.1091 34.7702 88.1975 22.9904 86.49 11.5928C75.0925 9.88535 63.9514 18.118 60.6218 21.4476L33.7954 49.5968ZM69.9495 52.4386L52.9173 69.4708L56.1189 85.5639L70.8413 72.9102L69.9495 52.4386Z" fill="url(#paint0_linear_205_159)"/>
</g>
<defs>
<linearGradient id="paint0_linear_205_159" x1="48.9262" y1="6.21313" x2="48.9262" y2="92.3941" gradientUnits="userSpaceOnUse">
<stop stop-color="#065A97"/>
<stop offset="1" stop-color="#012F50"/>
</linearGradient>
<clipPath id="clip0_205_159">
<rect width="96" height="96" fill="white" transform="translate(0.5)"/>
</clipPath>
</defs>
</svg>
