<svg width="97" height="96" viewBox="0 0 97 96" fill="none" xmlns="http://www.w3.org/2000/svg">
<g clip-path="url(#clip0_205_220)">
<g clip-path="url(#clip1_205_220)">
<path d="M13.5917 46.9691V77.7783H26.6352L27.2938 77.8558C39.4031 80.6797 47.4272 82.7159 51.4263 83.9772C56.7384 85.6517 58.7186 86.0607 62.3217 86.3017C65.0164 86.4868 68.0771 85.4494 69.4719 84.0288C70.2424 83.2454 70.8192 81.6354 71.0474 79.1386C71.0947 78.6151 71.2818 78.1138 71.5893 77.6874C71.8968 77.2611 72.3133 76.9252 72.7951 76.715C73.867 76.2501 74.7581 75.4925 75.5028 74.3905C76.1916 73.3831 76.6393 71.5063 76.7211 68.79C76.7355 68.2906 76.877 67.8032 77.1324 67.3738C77.3878 66.9444 77.7485 66.5873 78.1804 66.3363C80.6858 64.8856 81.9255 63.2497 82.1838 61.3298C82.4679 59.2076 81.7792 56.8184 79.9755 54.0978C79.5523 53.4598 79.3947 52.6818 79.5361 51.9293C79.6776 51.1769 80.1071 50.5093 80.7331 50.0686C82.4593 48.8546 83.4064 47.1671 83.6431 44.7737C84.0219 40.9597 81.5898 38.1401 76.084 37.5761C71.1803 37.0911 66.2293 37.504 61.4736 38.7944C60.9341 38.9354 60.3656 38.9193 59.835 38.7482C59.3043 38.577 58.8336 38.2579 58.4781 37.8283C58.1227 37.3987 57.8973 36.8765 57.8286 36.3232C57.7598 35.7698 57.8506 35.2084 58.0901 34.7049C60.2424 30.1504 61.4392 26.3924 61.719 23.4824C62.0849 19.621 61.1938 16.8229 59.1103 14.5155C57.5304 12.7678 55.0036 11.7691 54.0565 11.9757C52.8081 12.2426 51.9945 12.9658 50.9356 15.497C50.3114 16.9951 50.01 18.2693 49.4935 21.2439C48.9984 24.0678 48.7272 25.342 48.1633 27.0123C46.4629 32.0747 42.2916 37.3222 36.6911 40.9425C32.766 43.4767 28.512 45.4611 24.048 46.84C23.7691 46.926 23.4789 46.9695 23.1871 46.9691H13.5917ZM13.4109 83.6457C12.0205 83.6844 10.7721 83.3745 9.72607 82.6427C8.39159 81.7086 7.7631 80.2363 7.75018 78.5403L7.7631 47.0165C7.61673 45.3376 8.11178 43.7965 9.28268 42.6515C10.3804 41.5753 11.8139 41.0673 13.3292 41.1017H22.7351C26.5399 39.8894 30.1673 38.1785 33.5228 36.0135C38.0342 33.0949 41.3575 28.9107 42.6274 25.1397C43.0621 23.8396 43.2946 22.7635 43.7337 20.2323C44.3277 16.8358 44.698 15.2559 45.5503 13.2241C47.3153 8.99683 49.6312 6.93054 52.8253 6.23747C55.9678 5.55732 60.5438 7.36963 63.4366 10.5724C66.6436 14.1195 68.0599 18.5577 67.5347 24.042C67.3109 26.401 66.6565 29.0398 65.5804 31.9799C69.2557 31.4443 72.9829 31.3634 76.678 31.7389C85.3177 32.6214 90.1692 38.2477 89.4632 45.3591C89.1532 48.4241 88.0426 51.0285 86.1528 53.0733C87.7413 56.134 88.3741 59.1602 87.978 62.1133C87.5217 65.514 85.6276 68.3466 82.4765 70.5463C82.2312 73.5295 81.5467 75.91 80.3328 77.6922C79.3763 79.132 78.1283 80.3551 76.6694 81.2824C76.2045 84.2268 75.2273 86.5299 73.6303 88.1485C70.9828 90.8433 66.2519 92.4489 61.9299 92.1562C57.8275 91.8807 55.3996 91.3814 49.6743 89.5734C45.899 88.3809 38.0815 86.4007 26.2994 83.6457H13.4109ZM20.7333 45.6303C20.7322 45.2452 20.8071 44.8636 20.9537 44.5075C21.1003 44.1514 21.3157 43.8276 21.5877 43.5549C21.8596 43.2822 22.1827 43.0658 22.5384 42.9181C22.8941 42.7705 23.2754 42.6945 23.6606 42.6945C24.045 42.6956 24.4254 42.7725 24.7801 42.9206C25.1349 43.0688 25.4569 43.2853 25.7279 43.558C25.999 43.8306 26.2136 44.1539 26.3597 44.5095C26.5057 44.8651 26.5803 45.2459 26.5792 45.6303V78.6823C26.5798 79.0667 26.5046 79.4475 26.358 79.8028C26.2115 80.1582 25.9963 80.4812 25.7249 80.7534C25.4535 81.0257 25.1311 81.2418 24.7762 81.3894C24.4212 81.537 24.0407 81.6133 23.6563 81.6139C23.2719 81.6133 22.8913 81.537 22.5364 81.3894C22.1815 81.2418 21.8591 81.0257 21.5877 80.7534C21.3162 80.4812 21.1011 80.1582 20.9545 79.8028C20.8079 79.4475 20.7328 79.0667 20.7333 78.6823V45.6303Z" fill="url(#paint0_linear_205_220)"/>
</g>
</g>
<defs>
<linearGradient id="paint0_linear_205_220" x1="48.6345" y1="6.09534" x2="48.6345" y2="92.1905" gradientUnits="userSpaceOnUse">
<stop stop-color="#065A97"/>
<stop offset="1" stop-color="#012F50"/>
</linearGradient>
<clipPath id="clip0_205_220">
<rect width="96" height="96" fill="white" transform="translate(0.5)"/>
</clipPath>
<clipPath id="clip1_205_220">
<rect width="86.0952" height="86.0952" fill="white" transform="translate(7.7381 6.09534)"/>
</clipPath>
</defs>
</svg>
