<?xml version="1.0" encoding="utf-8"?>
<!-- Generator: Adobe Illustrator 27.5.0, SVG Export Plug-In . SVG Version: 6.00 Build 0)  -->
<svg version="1.1" id="Слой_1" xmlns="http://www.w3.org/2000/svg" xmlns:xlink="http://www.w3.org/1999/xlink" x="0px" y="0px"
	 viewBox="0 0 612 426.1" style="enable-background:new 0 0 612 426.1;" xml:space="preserve">
<g>
	<g>
		<g>
			<path d="M398.4,111c-0.2,4.8-0.5,9.6-0.7,13.6c56.5,1.1,111.9,2.1,167.3,3.2c0.5,0,1,0.8,2.2,1.8c-2.3,2-4.1,4.1-6.3,5.6
				c-9,5.9-18.1,11.9-27.4,17.4c-2.5,1.5-3.2,2.9-3,5.8c0.8,17.4,0.3,34.8,0.9,52.2c-0.7,0-0.4,0.1-1.2,0.1
				c-0.5-9.4-1.4-18.8-1.5-28.2c-0.2-8.8,0.2-17.6,0.6-26.5c0-1.1,1.1-2.5,2.1-3.3c7.5-6.2,15-12.2,22.5-18.2c1.3-1,2.7-1.8,4-2.8
				c-0.3-0.6-0.7-1.2-1-1.9c-52.6-0.5-105.3-1-157.7-1.5c0.6,27.6,1.2,54.6,1.7,81.7c-0.5,0-1,0.1-1.5,0.1
				c-0.5-5.9-1.3-11.8-1.4-17.6c-0.6-25.6-1-51.3-1.3-76.9C396.7,114.1,397.9,112.6,398.4,111C398.5,111.1,398.4,111,398.4,111z"/>
			<path d="M90,152c-12.3-5.6-24.5-15.5-34.6-24.2c0.1-0.6,0.2-1.2,0.3-1.8c2.6-0.4,5.2-1.2,7.8-1.3c24.1-0.6,48.3-1.2,72.4-1.4
				c28-0.2,55.9-0.1,84.5-0.1c0.4-2.2,0.1-7.3,0.6-9.9c0.1,0,0.2,0.1,0.4,0.1c0,31.2,0.8,64.9,0.8,96.1c-0.8,0-1.5,0-2.3,0.1
				c-0.2-9-0.5-18.1-0.6-27.1c-0.1-9.3,0.1-18.6,0.1-28c0-9.3,0.9-20.8,0.9-29.5c-50.9,0-103.5,2.3-155.1,2.3
				c-0.2,0.6-0.4,1.2-0.6,1.8c5.3,4.6,10.7,9.1,16,13.8c2.7,2.4,6.9,6.6,9.5,9L90,152z"/>
			<path d="M398.5,111.1c3.5-6.6,7-13.1,10.4-19.7c1.2-2.3,2.2-4.7,3.8-7.8c-69-0.8-137-4.8-206.4-0.3c2.2,5.2,4,10.1,6.2,14.8
				c2.1,4.6,6.4,11,8.8,15.5c-0.6,0.3,0.6-0.3,0,0c-4.9-8.4-13.6-17.7-17.9-26.4c-2.6-5.3-0.6-7.9,5.3-8.1c12.7-0.3,25.3-0.2,38-0.2
				c35-0.2,70-0.7,104.9-0.5c20,0.1,40,1,59.9,1.7c6,0.2,7.3,2.2,4.2,7C410.4,95.2,404.3,103,398.5,111.1
				C398.4,111,398.5,111.1,398.5,111.1z"/>
			<path d="M398.5,187.3c-53.9,0-123.6,0-177.5,0C227.6,183.2,369.5,183.1,398.5,187.3z"/>
			<path d="M393.5,113.4c-55.1,0-117.4,0-172.5,0C241,109.7,382.3,109.4,393.5,113.4z"/>
			<path d="M466,208c0-17.4,0-34.8,0-52.7c-19.3,0-47.9-0.3-66.3-0.3c0-0.4,0,0.1,0-0.2c38.7-0.8,91.2-1.1,130.2-0.4
				c0,0.4,0-0.2,0,0.2c-19.2,0-42.8,0.6-62.5,0.6c0,18,0,35.4,0,52.8C467.1,208,466.5,208,466,208z"/>
			<path d="M155.2,208c0-17.4,0-34.8,0-52.7c-19.3,0-47.9-0.3-66.3-0.3c0-0.4,0.1,0.1,0.1-0.2c38.7-0.8,91.2-1.1,130.2-0.4
				c0,0.4,0-0.2,0,0.2c-19.2,0-42.8,0.6-62.5,0.6c0,18,0,35.4,0,52.8C156.2,208,155.7,208,155.2,208z"/>
			<path d="M88.5,150.9c0.6,0.3,1.5,0.9,1.5,1.2c0.1,20.3-0.7,41.2-0.7,61.5c-0.5,1.6,0.1,1.7-0.5,1.8c-0.2-1.3-0.6-2.5-0.6-3.8
				c0.2-17.2-0.1-37.9,0.1-55.2C88.3,154.3,88.5,150.9,88.5,150.9z"/>
			<path d="M309.7,173.7c0-18.7,0-37.4,0-56.1c0.3,0,0.6,0,0.9,0c0,18.7,0,37.4,0,56.1C310.2,173.7,310,173.7,309.7,173.7z"/>
		</g>
	</g>
	<path d="M299.1,152.6c-0.6,4.7-0.8,5.3-1.3,5.3c-0.4,0-0.8-0.6-1.5-5.3c-0.9-6,0.2-9.5,1.5-9.5C299,143.1,300,146.6,299.1,152.6z"
		/>
	<path d="M322.9,152.6c-0.6,4.7-0.7,5.4-1.3,5.4c-0.4,0-0.8-0.6-1.5-5.3c-0.9-6,0.2-9.5,1.5-9.5
		C322.9,143.1,323.7,146.6,322.9,152.6z"/>
	<path d="M147.6,204.2c-0.5,3.8-0.6,4.4-1.1,4.4c-0.4,0-0.7-0.5-1.2-4.4c-0.7-4.9,0.2-7.8,1.2-7.8
		C147.5,196.4,148.2,199.2,147.6,204.2z"/>
	<path d="M166.9,204.2c-0.5,3.8-0.6,4.4-1.1,4.4c-0.4,0-0.7-0.5-1.2-4.4c-0.7-4.9,0.2-7.8,1.2-7.8
		C166.9,196.4,167.6,199.2,166.9,204.2z"/>
	<path d="M455.5,204.2c-0.5,3.8-0.6,4.4-1.1,4.4c-0.4,0-0.7-0.5-1.2-4.4c-0.7-4.9,0.2-7.8,1.2-7.8
		C455.4,196.4,456.2,199.2,455.5,204.2z"/>
	<path d="M475.3,204.2c-0.5,3.8-0.6,4.4-1,4.4c-0.4,0-0.7-0.5-1.2-4.4c-0.7-4.9,0.2-7.8,1.2-7.8C475.3,196.4,476,199.2,475.3,204.2z
		"/>
</g>
<g>
	<path d="M112.3,277.7H86.1v-2.8c2.2,0,3.8-0.2,4.9-0.6s1.9-1.1,2.2-2.2c0.4-1.1,0.6-2.8,0.6-4.9v-32.9c0-2.2-0.2-3.8-0.6-4.8
		c-0.4-1-1.1-1.7-2.2-2c-1.1-0.3-2.8-0.5-4.9-0.5v-2.8h23.6c4.9,0,8.8,0.5,11.7,1.5s5,2.4,6.3,4.3c1.3,1.9,1.9,4.1,1.9,6.8
		c0,3.6-1.1,6.4-3.3,8.2c-2.2,1.9-5,3.2-8.3,4.2v0.3c2.3,0.4,4.6,1.1,6.7,2.1s3.9,2.4,5.4,4.3c1.4,1.9,2.2,4.4,2.2,7.5
		c0,4.7-1.8,8.2-5.2,10.7C123.4,276.5,118.6,277.7,112.3,277.7z M102.8,228v20h5.1c4.7,0,7.9-0.8,9.6-2.4c1.7-1.6,2.6-4.2,2.6-7.9
		c0-3.2-0.9-5.7-2.8-7.4c-1.8-1.7-5.1-2.6-9.9-2.6c-0.7,0-1.4,0-2.2,0C104.4,227.8,103.6,227.9,102.8,228z M108.2,274.4
		c1.7,0,3.4-0.1,5.1-0.3c1.6-0.2,3.1-0.7,4.4-1.4c1.3-0.7,2.4-1.8,3.1-3.3s1.1-3.5,1.1-6c0-3.1-0.7-5.6-2-7.2
		c-1.3-1.7-3-2.8-5.1-3.5c-2.1-0.6-4.3-0.9-6.6-0.9h-5.5v22.4c0.9,0.1,1.8,0.1,2.7,0.2C106.4,274.3,107.3,274.4,108.2,274.4z"/>
	<path d="M241.6,278.8c-5.5,0-10.2-1.1-14.1-3.3c-3.9-2.2-6.9-5.4-9-9.6s-3.1-9.1-3.1-14.9c0-5.6,1.1-10.5,3.2-14.6
		c2.1-4.2,5.1-7.4,9-9.6c3.9-2.3,8.6-3.4,14.1-3.4c5.5,0,10.2,1.1,14.1,3.3s6.9,5.4,9,9.4c2.1,4,3.1,8.8,3.1,14.3
		c0,5.8-1,10.8-3.1,15.1c-2.1,4.3-5.1,7.6-9,10C251.7,277.6,247,278.8,241.6,278.8z M241.7,275c5.4,0,9.5-2,12.2-6.1
		c2.7-4.1,4-10.2,4-18.5c0-4.9-0.7-9.2-2.1-12.7c-1.4-3.5-3.3-6.2-5.8-8.1c-2.5-1.9-5.4-2.8-8.7-2.8c-5,0-8.9,2.1-11.8,6.2
		c-2.9,4.1-4.3,9.9-4.3,17.4c0,7.7,1.4,13.7,4.1,18.1C232,272.8,236.1,275,241.7,275z"/>
	<path d="M375.9,277.7h-24.4v-2.8c2.1,0,3.6-0.2,4.7-0.5c1.1-0.3,1.8-1,2.2-2.1s0.6-2.8,0.6-5v-34.2c0-1.5-0.2-2.7-0.5-3.6
		c-0.3-0.9-1-1.5-2.1-1.9s-2.7-0.6-4.9-0.6v-2.8h22.2c4,0,7.5,0.4,10.8,1.2s5.7,2.2,7.6,4.1c1.9,1.9,2.8,4.6,2.8,8.1
		c0,3-0.7,5.5-2,7.4s-3,3.3-5,4.4s-4.2,1.9-6.5,2.4v0.3c0.9,0.5,1.9,1.5,3,2.8c1.1,1.3,2.6,3.2,4.4,5.7c1.8,2.5,4.2,5.9,7.2,10.1
		c1.2,1.8,2.5,2.9,3.8,3.4c1.3,0.5,2.8,0.7,4.7,0.7v2.8h-15.1c-2.1-3.3-3.9-6.1-5.2-8.3c-1.4-2.2-2.6-4.1-3.5-5.6
		c-1-1.5-1.9-2.8-2.6-4c-0.8-1.2-1.5-2.4-2.4-3.6c-0.8-1.3-1.6-2-2.2-2.3s-1.8-0.4-3.2-0.4h-2.1v13.9c0,2.2,0.2,3.8,0.6,4.9
		c0.4,1.1,1.1,1.8,2.3,2.2c1.1,0.3,2.9,0.5,5.2,0.5L375.9,277.7L375.9,277.7z M367.8,250l3.1,0.1c2.9-0.2,5.4-0.6,7.5-1.4
		c2.1-0.8,3.7-2,4.9-3.7s1.8-4,1.8-7c0-3.2-1-5.7-2.9-7.6c-1.9-1.9-4.9-2.8-9.1-2.8c-0.9,0-1.8,0-2.6,0s-1.8,0.1-2.6,0.2L367.8,250
		L367.8,250z"/>
	<path d="M497.9,277.7h-17.5v-2.8c1.5,0,2.7-0.2,3.6-0.7c0.9-0.5,1.8-1.4,2.6-2.8c0.8-1.4,1.8-3.5,2.9-6.3l17.4-41.4h5l18.7,43.8
		c1.2,2.7,2.4,4.6,3.5,5.7c1.1,1.1,2.7,1.7,4.8,1.7v2.8h-23.2v-2.8c0.8,0,1.6-0.1,2.4-0.2c0.8-0.1,1.5-0.4,2.1-0.8
		c0.6-0.4,0.9-1.1,0.9-2c0-0.6-0.1-1.3-0.4-2.2c-0.2-0.9-0.6-1.9-1.1-3.1l-3.2-7.4l-0.6-1.8l-8.8-22.9h-0.2l-9.2,22.9l-0.6,1.8
		l-3.6,8.6c-0.2,0.6-0.4,1.3-0.6,2c-0.2,0.7-0.3,1.4-0.3,2.2c0,1.2,0.4,2,1.3,2.3s2.2,0.5,4.2,0.5L497.9,277.7L497.9,277.7z
		 M517.9,260.1h-22.2l1.3-3.6h19.6L517.9,260.1z"/>
</g>
<g>
	<path d="M97.8,327.7H84.2v-1.5c1.2,0,2-0.1,2.6-0.3s1-0.6,1.2-1.2c0.2-0.6,0.3-1.5,0.3-2.8v-19c0-0.9-0.1-1.5-0.3-2
		s-0.6-0.9-1.2-1.1c-0.6-0.2-1.5-0.3-2.7-0.3v-1.5h12.3c2.2,0,4.2,0.2,6,0.7c1.8,0.5,3.2,1.2,4.2,2.3s1.5,2.6,1.5,4.5
		c0,1.7-0.4,3.1-1.1,4.1s-1.7,1.9-2.8,2.5c-1.1,0.6-2.3,1-3.6,1.3v0.2c0.5,0.3,1.1,0.8,1.7,1.5c0.6,0.7,1.4,1.8,2.4,3.2
		s2.3,3.3,4,5.6c0.7,1,1.4,1.6,2.1,1.9c0.7,0.3,1.6,0.4,2.6,0.4v1.5h-8.4c-1.2-1.8-2.2-3.4-2.9-4.6c-0.8-1.2-1.4-2.3-2-3.1
		s-1-1.6-1.4-2.2s-0.9-1.3-1.3-2c-0.4-0.7-0.9-1.1-1.2-1.3c-0.4-0.2-1-0.2-1.8-0.2h-1.2v7.8c0,1.2,0.1,2.1,0.3,2.7s0.6,1,1.3,1.2
		s1.6,0.3,2.9,0.3V327.7z M93.4,312.3l1.7,0c1.6-0.1,3-0.4,4.2-0.8c1.2-0.4,2.1-1.1,2.7-2.1s1-2.2,1-3.9c0-1.8-0.5-3.2-1.6-4.2
		s-2.8-1.6-5.1-1.6c-0.5,0-1,0-1.5,0c-0.5,0-1,0-1.5,0.1L93.4,312.3L93.4,312.3z"/>
	<path d="M153.5,327.7h-24.8v-1.5c1.1,0,2-0.1,2.6-0.2s1.1-0.5,1.3-1.1s0.4-1.4,0.4-2.6v-18.6c0-1.1-0.1-2-0.3-2.6s-0.6-1-1.2-1.2
		c-0.6-0.2-1.5-0.3-2.8-0.3v-1.5h24.3l0.3,7.7h-1.7c-0.2-1.5-0.5-2.6-0.9-3.3c-0.4-0.8-1.1-1.3-2-1.6s-2.3-0.4-4.1-0.4h-6.4v11.2
		h4.9c1.4,0,2.5-0.1,3.2-0.3c0.7-0.2,1.2-0.6,1.4-1.2c0.2-0.6,0.4-1.5,0.4-2.7h1.7v10.5H148c0-1.3-0.1-2.2-0.4-2.8s-0.7-1-1.4-1.2
		c-0.7-0.2-1.8-0.3-3.2-0.3h-4.9v12.1h5.7c1.7,0,3-0.1,4.1-0.3s1.9-0.5,2.5-1s1.1-1.1,1.5-1.9s0.8-1.9,1.2-3.2h1.7L153.5,327.7z"/>
	<path d="M199.1,328.1h-2.7l-18.3-24h-1.4l-1-1.9c-0.5-0.8-1-1.4-1.5-1.8c-0.4-0.4-0.9-0.6-1.4-0.8s-1.1-0.2-1.8-0.2v-1.5h8.8
		l16.5,21.7h0.2v-14.3c0-1.3-0.1-2.4-0.3-3.3c-0.2-0.9-0.6-1.5-1.2-1.9c-0.6-0.4-1.6-0.6-2.9-0.6v-1.5h10.9v1.5
		c-1.2,0-2.1,0.2-2.7,0.7s-1,1.1-1.2,2s-0.3,2-0.3,3.4L199.1,328.1L199.1,328.1z M182,327.7h-10.9v-1.5c1.2,0,2.1-0.2,2.7-0.7
		s1-1.1,1.2-2.1c0.2-1,0.3-2.2,0.3-3.7v-18.9h2.5v19.9c0,1.5,0.1,2.6,0.3,3.4c0.2,0.8,0.6,1.3,1.2,1.6c0.6,0.3,1.5,0.4,2.6,0.4
		L182,327.7L182,327.7z"/>
	<path d="M234.9,328.3c-3.1,0-5.7-0.6-7.9-1.9s-3.9-3-5-5.3s-1.8-5.1-1.8-8.3c0-3.1,0.6-5.8,1.8-8.1c1.2-2.3,2.9-4.1,5-5.4
		c2.2-1.3,4.8-1.9,7.9-1.9s5.7,0.6,7.9,1.9s3.8,3,5,5.2c1.1,2.2,1.7,4.9,1.7,7.9c0,3.2-0.6,6-1.8,8.4s-2.8,4.2-5,5.6
		C240.6,327.6,238,328.3,234.9,328.3z M235,326.2c3,0,5.3-1.1,6.8-3.4s2.2-5.7,2.2-10.3c0-2.8-0.4-5.1-1.2-7c-0.8-2-1.8-3.5-3.2-4.5
		s-3-1.6-4.8-1.6c-2.8,0-5,1.1-6.6,3.5c-1.6,2.3-2.4,5.5-2.4,9.7c0,4.3,0.8,7.6,2.3,10C229.6,325,231.9,326.2,235,326.2z"/>
	<path d="M281.2,327.9h-2.4l-10.5-24.4c-0.5-1-0.9-1.8-1.3-2.4s-0.9-1-1.4-1.3c-0.5-0.3-1.2-0.4-2.1-0.4v-1.5h13.1v1.5
		c-0.5,0-0.9,0-1.4,0.1c-0.5,0.1-0.9,0.2-1.2,0.5c-0.3,0.2-0.5,0.6-0.5,1.2c0,0.6,0.2,1.5,0.7,2.7l5.4,12.8l1.8,4.7h0.3l1.6-4.5
		l5.4-13.7c0.1-0.3,0.2-0.6,0.3-1c0.1-0.4,0.2-0.8,0.2-1.2c0-0.6-0.2-1-0.7-1.2c-0.5-0.2-1.2-0.3-2.3-0.3v-1.5h9.8v1.5
		c-0.6,0-1.2,0.1-1.6,0.2s-0.8,0.4-1.2,0.8c-0.4,0.4-0.8,1.1-1.2,1.9c-0.4,0.9-0.9,2-1.5,3.3L281.2,327.9z"/>
	<path d="M314.4,327.7h-9.8v-1.5c0.8,0,1.5-0.1,2-0.4c0.5-0.3,1-0.8,1.5-1.5c0.5-0.8,1-1.9,1.6-3.5l9.7-23h2.8l10.4,24.4
		c0.7,1.5,1.3,2.5,2,3.2c0.6,0.6,1.5,1,2.7,1v1.5h-12.9v-1.5c0.4,0,0.9,0,1.3-0.1s0.9-0.2,1.2-0.4c0.3-0.2,0.5-0.6,0.5-1.1
		c0-0.3-0.1-0.8-0.2-1.2c-0.1-0.5-0.3-1.1-0.6-1.8l-1.8-4.1l-0.3-1l-4.9-12.7h-0.1l-5.1,12.7l-0.4,1l-2,4.8
		c-0.1,0.4-0.2,0.7-0.4,1.1s-0.2,0.8-0.2,1.2c0,0.7,0.2,1.1,0.7,1.3c0.5,0.2,1.2,0.3,2.3,0.3L314.4,327.7L314.4,327.7z M325.5,317.9
		h-12.3l0.7-2h10.9L325.5,317.9z"/>
	<path d="M369.6,327.7h-13.9v-1.5c1.3,0,2.3-0.1,2.9-0.3c0.6-0.2,1-0.6,1.2-1.3s0.3-1.7,0.3-3v-21.5h-2.6c-1.7,0-2.9,0.2-3.7,0.5
		c-0.8,0.4-1.4,1-1.8,1.9c-0.4,0.9-0.7,2.2-1,3.8h-1.7l0.5-8.4h25.9l0.4,8.4h-1.7c-0.3-1.7-0.7-2.9-1-3.8c-0.4-0.9-1-1.5-1.8-1.9
		c-0.8-0.4-2.1-0.5-3.8-0.5h-2.6v21.5c0,1.4,0.1,2.4,0.3,3c0.2,0.6,0.6,1.1,1.2,1.3c0.6,0.2,1.6,0.3,2.9,0.3L369.6,327.7
		L369.6,327.7z"/>
	<path d="M405.9,327.7h-13.7v-1.5c1.4,0,2.4-0.1,3-0.3s1-0.7,1.2-1.3c0.2-0.6,0.2-1.6,0.2-2.9v-17.5c0-1.2-0.1-2.1-0.2-2.8
		c-0.1-0.7-0.5-1.2-1.1-1.4c-0.6-0.3-1.6-0.4-3-0.4v-1.5h13.7v1.5c-1.4,0-2.4,0.1-3,0.4s-1,0.8-1.1,1.4c-0.1,0.7-0.2,1.6-0.2,2.8
		v17.5c0,1.3,0.1,2.3,0.2,2.9s0.6,1.1,1.2,1.3c0.6,0.2,1.6,0.3,2.9,0.3L405.9,327.7L405.9,327.7z"/>
	<path d="M438.1,328.3c-3,0-5.7-0.6-7.9-1.9s-3.9-3-5-5.3s-1.8-5.1-1.8-8.3c0-3.1,0.6-5.8,1.8-8.1c1.2-2.3,2.9-4.1,5-5.4
		c2.2-1.3,4.8-1.9,7.9-1.9s5.7,0.6,7.9,1.9s3.8,3,5,5.2s1.7,4.9,1.7,7.9c0,3.2-0.6,6-1.8,8.4s-2.8,4.2-5,5.6
		C443.8,327.6,441.2,328.3,438.1,328.3z M438.2,326.2c3,0,5.3-1.1,6.8-3.4s2.2-5.7,2.2-10.3c0-2.8-0.4-5.1-1.2-7
		c-0.8-2-1.8-3.5-3.2-4.5s-3-1.6-4.8-1.6c-2.8,0-5,1.1-6.6,3.5c-1.6,2.3-2.4,5.5-2.4,9.7c0,4.3,0.8,7.6,2.3,10
		C432.8,325,435.1,326.2,438.2,326.2z"/>
	<path d="M497.9,328.1h-2.7l-18.3-24h-1.4l-1-1.9c-0.5-0.8-1-1.4-1.5-1.8c-0.4-0.4-0.9-0.6-1.4-0.8s-1-0.2-1.8-0.2v-1.5h8.8
		l16.5,21.7h0.2v-14.3c0-1.3-0.1-2.4-0.3-3.3c-0.2-0.9-0.6-1.5-1.2-1.9c-0.6-0.4-1.5-0.6-2.9-0.6v-1.5H502v1.5
		c-1.2,0-2.1,0.2-2.7,0.7c-0.6,0.4-1,1.1-1.2,2s-0.3,2-0.3,3.4L497.9,328.1L497.9,328.1z M480.8,327.7h-10.9v-1.5
		c1.2,0,2.1-0.2,2.7-0.7s1-1.1,1.2-2.1c0.2-1,0.3-2.2,0.3-3.7v-18.9h2.5v19.9c0,1.5,0.1,2.6,0.3,3.4c0.2,0.8,0.6,1.3,1.2,1.6
		c0.6,0.3,1.5,0.4,2.6,0.4L480.8,327.7L480.8,327.7z"/>
	<path d="M520.5,328.3h-1.6l-0.4-9.8h1.7c0.5,2.1,1.1,3.6,1.8,4.7c0.7,1.1,1.5,1.8,2.5,2.2s2.2,0.6,3.6,0.6c1.1,0,2-0.1,2.9-0.5
		c0.8-0.3,1.5-0.8,2-1.5s0.7-1.5,0.7-2.6c0-1.3-0.3-2.4-1-3.3c-0.7-0.9-1.6-1.6-2.7-2.3s-2.3-1.3-3.5-2c-1.3-0.7-2.5-1.4-3.6-2.2
		c-1.2-0.8-2.1-1.7-2.8-2.8c-0.7-1.1-1.1-2.5-1.1-4.2c0-1.6,0.4-3,1.2-4.1s1.9-1.9,3.2-2.5c1.4-0.6,2.9-0.9,4.6-0.9
		c1.3,0,2.3,0.1,3.1,0.3c0.8,0.2,1.4,0.4,1.8,0.7s0.9,0.3,1.2,0.3c0.3,0,0.6-0.1,0.9-0.3s0.4-0.5,0.5-1h1.4l0.3,9.2h-1.6
		c-0.6-2.6-1.5-4.5-2.6-5.6c-1.1-1.2-2.7-1.7-4.8-1.7c-1.6,0-2.8,0.3-3.6,1c-0.8,0.7-1.2,1.7-1.2,3c0,1.1,0.3,2.1,1,2.9
		c0.6,0.8,1.5,1.5,2.5,2.1s2.1,1.2,3.3,1.9c1,0.5,2,1.1,3,1.7c1,0.6,1.9,1.2,2.8,2c0.8,0.7,1.5,1.6,2,2.6s0.8,2.2,0.8,3.6
		c0,1.8-0.4,3.3-1.3,4.5c-0.8,1.2-2,2.2-3.5,2.8c-1.5,0.6-3.2,1-5.1,1c-1.5,0-2.8-0.1-3.7-0.3c-0.9-0.2-1.6-0.5-2.2-0.7
		c-0.5-0.2-0.9-0.3-1.3-0.3s-0.6,0.1-0.8,0.4C520.7,327.6,520.5,327.9,520.5,328.3z"/>
</g>
</svg>
