<svg width="200" height="200" viewBox="0 0 200 200" fill="none" xmlns="http://www.w3.org/2000/svg">
<rect width="200" height="200" rx="20" fill="white"/>
<path d="M25.344 140.416V57.856C25.344 55.552 26.9653 54.4 30.208 54.4C31.488 54.4 32.5547 54.6987 33.408 55.296C34.3467 55.8933 34.816 56.7467 34.816 57.856V64.64C40.96 57.728 48.7253 54.272 58.112 54.272C64.4267 54.272 69.8453 55.9787 74.368 59.392C78.8907 62.8053 81.152 67.5413 81.152 73.6C81.152 77.3547 80.128 81.1093 78.08 84.864C76.1173 88.5333 73.0027 91.0507 68.736 92.416C76.8427 93.696 83.0293 96.7253 87.296 101.504C91.648 106.283 93.824 111.403 93.824 116.864C93.824 125.312 91.0933 132.309 85.632 137.856C80.1707 143.403 71.6373 146.176 60.032 146.176C50.048 146.176 41.5573 144.683 34.56 141.696C33.792 143.232 32.2987 144 30.08 144C26.9227 144 25.344 142.805 25.344 140.416ZM34.816 132.352C40.2773 135.253 48.256 136.704 58.752 136.704C67.456 136.704 73.8987 134.955 78.08 131.456C82.2613 127.872 84.352 123.477 84.352 118.272C84.352 112.213 81.7493 107.691 76.544 104.704C71.3387 101.632 64.4693 100.096 55.936 100.096C53.2907 100.096 49.4933 100.181 44.544 100.352C39.5947 100.437 36.352 100.48 34.816 100.48V132.352ZM34.816 90.112C38.2293 90.5387 42.0267 90.752 46.208 90.752C54.2293 90.752 60.4587 89.1307 64.896 85.888C69.4187 82.56 71.68 78.6773 71.68 74.24C71.68 70.5707 70.4427 67.84 67.968 66.048C65.4933 64.256 62.208 63.36 58.112 63.36C53.3333 63.36 48.8533 64.512 44.672 66.816C40.4907 69.12 37.2053 72.704 34.816 77.568V90.112ZM107.594 140.544V57.984C107.594 55.5947 109.173 54.4 112.33 54.4C115.317 54.4 116.81 56.2347 116.81 59.904C125.599 56.1493 134.09 54.272 142.282 54.272C153.887 54.272 162.421 57.0453 167.882 62.592C173.343 68.1387 176.074 75.136 176.074 83.584C176.074 95.5307 169.887 103.467 157.514 107.392L178.89 138.24C179.402 139.179 179.658 139.989 179.658 140.672C179.658 141.696 179.231 142.507 178.378 143.104C177.61 143.701 176.586 144 175.306 144C172.661 144 170.57 142.933 169.034 140.8L147.786 109.568C143.519 110.165 138.442 110.464 132.554 110.464C130.847 110.464 128.245 110.336 124.746 110.08C121.333 109.824 118.773 109.696 117.066 109.696V140.544C117.066 141.653 116.597 142.507 115.658 143.104C114.805 143.701 113.738 144 112.458 144C109.215 144 107.594 142.848 107.594 140.544ZM117.066 98.688C120.565 99.7973 127.605 100.352 138.186 100.352C146.719 100.352 153.589 98.8587 158.794 95.872C163.999 92.8 166.602 88.2347 166.602 82.176C166.602 76.9707 164.511 72.6187 160.33 69.12C156.149 65.536 149.706 63.744 141.002 63.744C133.493 63.744 125.514 66.0053 117.066 70.528V98.688Z" fill="black"/>
</svg>
