<svg width="466" height="108" viewBox="0 0 466 108" fill="none" xmlns="http://www.w3.org/2000/svg">
<path d="M29.6854 55.8489H2.92889V52.9969C5.17563 52.9969 6.80961 52.7932 7.93298 52.3858C9.05635 51.9784 9.87334 51.2654 10.1797 50.145C10.5882 49.0246 10.7925 47.2931 10.7925 45.1542V11.6442C10.7925 9.40341 10.5882 7.77374 10.1797 6.7552C9.77121 5.73666 9.05635 5.02368 7.93298 4.71812C6.80961 4.41256 5.0735 4.20885 2.92889 4.20885V1.35693H27.0302C32.0343 1.35693 36.0171 1.8662 38.9787 2.88474C41.9403 3.90328 44.0849 5.32924 45.4126 7.26447C46.7402 9.1997 47.3529 11.4405 47.3529 14.1905C47.3529 17.8573 46.2296 20.7092 43.9828 22.5426C41.7361 24.4778 38.8766 25.8019 35.5065 26.8204V27.126C37.8554 27.5334 40.2042 28.2464 42.3488 29.2649C44.4934 30.2835 46.3317 31.7094 47.8635 33.6447C49.2933 35.5799 50.1103 38.1262 50.1103 41.2837C50.1103 46.0708 48.272 49.6358 44.7998 52.1821C41.0212 54.6266 36.1193 55.8489 29.6854 55.8489ZM19.9836 5.22739V25.5982H25.192C29.9918 25.5982 33.2598 24.7834 34.9959 23.1537C36.732 21.524 37.6511 18.8758 37.6511 15.1072C37.6511 11.8479 36.732 9.30155 34.7916 7.57004C32.9534 5.83852 29.5833 4.92182 24.6813 4.92182C23.9665 4.92182 23.2516 4.92182 22.4346 4.92182C21.6176 5.02368 20.8006 5.12554 19.9836 5.22739ZM25.4983 52.4877C27.2344 52.4877 28.9706 52.3858 30.7067 52.1821C32.3407 51.9784 33.8725 51.4691 35.2001 50.7562C36.5277 50.0432 37.6511 48.9228 38.366 47.395C39.0809 45.8671 39.4894 43.8301 39.4894 41.2837C39.4894 38.1262 38.7745 35.5799 37.4469 33.9502C36.1193 32.2187 34.3831 31.0983 32.2385 30.3853C30.0939 29.7742 27.8472 29.4687 25.4983 29.4687H19.8815V52.284C20.8006 52.3858 21.7197 52.3858 22.6389 52.4877C23.6601 52.3858 24.5792 52.4877 25.4983 52.4877Z" fill="#585757"/>
<path d="M161.732 56.9691C156.115 56.9691 151.315 55.8487 147.332 53.6079C143.35 51.3672 140.286 48.1078 138.141 43.83C135.997 39.5521 134.975 34.5612 134.975 28.6537C134.975 22.9499 136.099 17.959 138.243 13.783C140.388 9.50515 143.452 6.24583 147.435 4.00504C151.417 1.6624 156.217 0.541992 161.834 0.541992C167.451 0.541992 172.251 1.66239 176.234 3.90318C180.216 6.14397 183.28 9.4033 185.425 13.4775C187.569 17.5516 188.591 22.4406 188.591 28.0426C188.591 33.9501 187.569 39.0428 185.425 43.4225C183.28 47.8023 180.216 51.1634 176.234 53.6079C172.047 55.7469 167.247 56.9691 161.732 56.9691ZM161.834 53.0987C167.349 53.0987 171.536 51.0616 174.293 46.8856C177.051 42.7096 178.378 36.4965 178.378 28.0426C178.378 23.0517 177.663 18.672 176.234 15.1071C174.804 11.5422 172.864 8.79218 170.31 6.85695C167.757 4.92173 164.796 4.00504 161.426 4.00504C156.319 4.00504 152.337 6.14397 149.375 10.32C146.413 14.496 144.984 20.4035 144.984 28.0426C144.984 35.8853 146.413 41.9966 149.171 46.4782C151.928 50.8579 156.115 53.0987 161.834 53.0987Z" fill="#585757"/>
<path d="M298.885 55.8489H273.966V52.9969C276.111 52.9969 277.643 52.7932 278.766 52.4877C279.89 52.1821 280.604 51.4691 281.013 50.3487C281.421 49.2283 281.626 47.4968 281.626 45.256V10.422C281.626 8.89414 281.421 7.67189 281.115 6.7552C280.809 5.83851 280.094 5.2274 278.971 4.81998C277.847 4.41256 276.213 4.20885 273.966 4.20885V1.35693H296.638C300.723 1.35693 304.297 1.76435 307.667 2.57918C311.038 3.39401 313.488 4.81997 315.429 6.7552C317.369 8.69043 318.288 11.4405 318.288 15.0054C318.288 18.061 317.573 20.6073 316.246 22.5426C314.918 24.4778 313.182 25.9038 311.14 27.0241C309.097 28.1445 306.85 28.9594 304.502 29.4687V29.7742C305.421 30.2835 306.442 31.302 307.565 32.6261C308.689 33.9502 310.221 35.8855 312.059 38.4318C313.897 40.9782 316.348 44.4412 319.412 48.7191C320.637 50.5524 321.965 51.6728 323.292 52.1821C324.62 52.6914 326.152 52.8951 328.092 52.8951V55.747H312.671C310.527 52.3858 308.689 49.5339 307.361 47.2931C305.931 45.0523 304.706 43.1171 303.787 41.5893C302.765 40.0615 301.846 38.7374 301.131 37.5151C300.314 36.2929 299.6 35.0706 298.68 33.8484C297.864 32.5243 297.046 31.8113 296.434 31.5057C295.821 31.2002 294.596 31.0983 293.166 31.0983H291.021V45.256C291.021 47.4968 291.225 49.1265 291.634 50.2469C292.042 51.3673 292.757 52.0802 293.983 52.4877C295.106 52.7932 296.944 52.9969 299.293 52.9969L298.885 55.8489ZM290.613 27.6353L293.779 27.7371C296.74 27.5334 299.293 27.126 301.438 26.3112C303.582 25.4963 305.216 24.2741 306.442 22.5426C307.667 20.8111 308.28 18.4684 308.28 15.4128C308.28 12.1535 307.259 9.60711 305.319 7.67188C303.378 5.73665 300.314 4.81998 296.025 4.81998C295.106 4.81998 294.187 4.81998 293.37 4.81998C292.553 4.81998 291.532 4.92183 290.715 5.02368L290.613 27.6353Z" fill="#585757"/>
<path d="M423.476 55.8488H405.604V52.9969C407.136 52.9969 408.362 52.7932 409.281 52.2839C410.2 51.7747 411.119 50.858 411.936 49.432C412.753 48.0061 413.774 45.8671 414.898 43.0152L432.667 0.847656H437.774L456.871 45.4597C458.096 48.2098 459.322 50.145 460.445 51.2654C461.569 52.3858 463.203 52.9969 465.347 52.9969V55.8488H441.654V52.9969C442.471 52.9969 443.288 52.8951 444.105 52.7932C444.922 52.6914 445.637 52.3858 446.25 51.9784C446.863 51.571 447.169 50.858 447.169 49.9413C447.169 49.3302 447.067 48.6172 446.761 47.7005C446.556 46.7838 446.148 45.7653 445.637 44.543L442.369 37.0058L441.756 35.1725L432.77 11.8479H432.565L423.17 35.1725L422.557 37.0058L418.881 45.7653C418.676 46.3764 418.472 47.0894 418.268 47.8023C418.064 48.5153 417.962 49.2283 417.962 50.0431C417.962 51.2654 418.37 52.0802 419.289 52.3858C420.208 52.6913 421.536 52.895 423.578 52.895L423.476 55.8488ZM443.901 37.9225H421.23L422.557 34.2558H442.573L443.901 37.9225Z" fill="#585757"/>
<path d="M14.8774 106.776H0.988536V105.248C2.21403 105.248 3.03103 105.146 3.64377 104.942C4.25652 104.738 4.66501 104.331 4.86926 103.72C5.07351 103.109 5.17563 102.192 5.17563 100.868V81.5157C5.17563 80.5991 5.07351 79.9879 4.86926 79.4787C4.66501 78.9694 4.25652 78.562 3.64377 78.3583C3.03103 78.1546 2.1119 78.0527 0.886414 78.0527V76.5249H13.4477C15.6944 76.5249 17.7369 76.7286 19.5751 77.2379C21.4134 77.7472 22.8431 78.4601 23.8644 79.5805C24.8856 80.7009 25.3962 82.2287 25.3962 84.164C25.3962 85.8955 24.9877 87.3214 24.2729 88.34C23.558 89.3585 22.5367 90.2752 21.4134 90.8863C20.29 91.4975 19.0645 91.9049 17.7369 92.2104V92.4141C18.2475 92.7197 18.8603 93.229 19.473 93.9419C20.0858 94.6549 20.9028 95.7753 21.924 97.2013C22.9452 98.6272 24.2728 100.562 26.009 102.905C26.7238 103.924 27.4387 104.535 28.1536 104.84C28.8684 105.146 29.7876 105.248 30.8088 105.248V106.776H22.2304C21.0049 104.942 19.9836 103.313 19.2688 102.09C18.4518 100.868 17.839 99.7476 17.2263 98.9328C16.6135 98.118 16.205 97.3031 15.7965 96.692C15.388 96.0809 14.8774 95.3679 14.4689 94.6549C14.0604 93.9419 13.5498 93.5345 13.2434 93.3308C12.8349 93.1271 12.2222 93.1271 11.4052 93.1271H10.1797V101.072C10.1797 102.294 10.2818 103.211 10.4861 103.822C10.6903 104.433 11.0988 104.84 11.8137 105.044C12.5286 105.248 13.4477 105.35 14.7753 105.35V106.776H14.8774ZM10.384 91.09H12.1201C13.7541 90.9882 15.1838 90.6826 16.4093 90.2752C17.6348 89.8678 18.5539 89.1548 19.1666 88.1363C19.7794 87.1177 20.1879 85.8955 20.1879 84.164C20.1879 82.3306 19.6773 80.9046 18.5539 79.8861C17.4305 78.8675 15.6944 78.2564 13.3456 78.2564C12.8349 78.2564 12.3243 78.2564 11.8137 78.2564C11.3031 78.2564 10.7925 78.2564 10.2818 78.3583L10.384 91.09Z" fill="#585757"/>
<path d="M71.7606 106.776H46.4338V105.248C47.5571 105.248 48.4763 105.146 49.089 105.044C49.7018 104.942 50.2124 104.535 50.4166 103.924C50.6209 103.313 50.8251 102.498 50.8251 101.276V82.3308C50.8251 81.2104 50.723 80.2937 50.5187 79.6826C50.3145 79.0714 49.906 78.664 49.2933 78.4603C48.6805 78.2566 47.7614 78.1548 46.4338 78.1548V76.627H71.25L71.5563 84.4697H69.8202C69.616 82.9419 69.3096 81.8215 68.9011 81.1085C68.4926 80.2937 67.7777 79.7844 66.8586 79.4789C65.9395 79.1733 64.5098 79.0714 62.6715 79.0714H56.1356V90.4791H61.1397C62.5694 90.4791 63.6928 90.3772 64.4076 90.1735C65.1225 89.9698 65.6331 89.5624 65.8374 88.9513C66.0416 88.3402 66.2459 87.4235 66.2459 86.2012H67.982V96.8959H66.1437C66.1437 95.5718 66.0416 94.6551 65.7353 94.044C65.4289 93.4329 65.0204 93.0254 64.3055 92.8217C63.5906 92.618 62.4673 92.5162 61.0375 92.5162H56.0335V104.84H61.8545C63.5906 104.84 64.9183 104.739 66.0416 104.535C67.165 104.331 67.982 104.026 68.5947 103.516C69.2075 103.007 69.7181 102.396 70.1266 101.581C70.5351 100.766 70.9436 99.646 71.3521 98.3218H73.0882L71.7606 106.776Z" fill="#585757"/>
<path d="M118.329 107.183H115.572L96.8831 82.7383H95.4534L94.4322 80.8031C93.9215 79.9882 93.4109 79.3771 92.9003 78.9697C92.4918 78.5623 91.9812 78.3586 91.4706 78.1549C90.9599 77.9512 90.3472 77.9512 89.6323 77.9512V76.4233H98.6193L115.47 98.5257H115.674V83.9605C115.674 82.6364 115.572 81.516 115.368 80.5994C115.163 79.6827 114.755 79.0716 114.142 78.6641C113.529 78.2567 112.508 78.053 111.181 78.053V76.5252H122.312V78.053C121.087 78.053 120.167 78.2567 119.555 78.766C118.942 79.2753 118.533 79.8864 118.329 80.8031C118.125 81.7198 118.023 82.8402 118.023 84.2661L118.329 107.183ZM100.866 106.776H89.7345V105.248C90.9599 105.248 91.8791 105.044 92.4918 104.535C93.1045 104.026 93.513 103.415 93.7173 102.396C93.9215 101.378 94.0237 100.155 94.0237 98.6275V79.3771H96.5768V99.6461C96.5768 101.174 96.6789 102.294 96.8831 103.109C97.0874 103.924 97.4959 104.433 98.1086 104.739C98.7214 105.044 99.6405 105.146 100.764 105.146L100.866 106.776Z" fill="#585757"/>
<path d="M154.89 107.387C151.724 107.387 149.069 106.776 146.822 105.452C144.575 104.128 142.839 102.396 141.716 100.053C140.592 97.7108 139.877 94.8589 139.877 91.5996C139.877 88.4421 140.49 85.6921 141.716 83.3494C142.941 81.0068 144.677 79.1734 146.822 77.8493C149.069 76.5252 151.724 75.9141 154.89 75.9141C158.056 75.9141 160.711 76.5252 162.958 77.8493C165.204 79.1734 166.838 80.9049 168.064 83.1457C169.187 85.3865 169.8 88.1365 169.8 91.1922C169.8 94.4515 169.187 97.3034 167.962 99.7479C166.736 102.192 165.102 104.026 162.855 105.452C160.711 106.674 158.056 107.387 154.89 107.387ZM154.992 105.248C158.056 105.248 160.404 104.128 161.936 101.785C163.468 99.4423 164.183 95.9793 164.183 91.294C164.183 88.4421 163.775 86.0995 162.958 84.1642C162.141 82.1272 161.119 80.5994 159.69 79.5808C158.26 78.5623 156.626 77.9511 154.788 77.9511C151.928 77.9511 149.681 79.0715 148.047 81.516C146.413 83.8587 145.596 87.118 145.596 91.3959C145.596 95.7756 146.413 99.1368 147.945 101.581C149.477 104.026 151.826 105.248 154.992 105.248Z" fill="#585757"/>
<path d="M202.173 106.98H199.722L188.999 82.1272C188.488 81.1086 188.08 80.2938 187.672 79.6827C187.263 79.0716 186.752 78.6641 186.242 78.3586C185.731 78.053 185.016 77.9512 184.097 77.9512V76.4233H197.475V77.9512C196.965 77.9512 196.556 77.9512 196.046 78.053C195.535 78.1549 195.127 78.2567 194.82 78.5623C194.514 78.766 194.31 79.1734 194.31 79.7845C194.31 80.3957 194.514 81.3123 195.024 82.5346L200.539 95.5719L202.377 100.359H202.684L204.318 95.7756L209.832 81.8216C209.935 81.5161 210.037 81.2105 210.139 80.8031C210.241 80.3957 210.343 79.9882 210.343 79.5808C210.343 78.9697 210.139 78.5623 209.628 78.3586C209.118 78.1549 208.403 78.053 207.279 78.053V76.5252H217.288V78.053C216.675 78.053 216.062 78.1549 215.654 78.2567C215.245 78.3586 214.837 78.6641 214.428 79.0716C214.02 79.479 213.611 80.1919 213.203 81.0068C212.794 81.9235 212.283 83.0439 211.671 84.368L202.173 106.98Z" fill="#585757"/>
<path d="M236.078 106.776H226.07V105.248C226.887 105.248 227.602 105.146 228.113 104.84C228.623 104.535 229.134 104.026 229.645 103.313C230.155 102.498 230.666 101.377 231.279 99.7477L241.185 76.3213H244.044L254.665 101.174C255.38 102.702 255.993 103.72 256.707 104.433C257.32 105.044 258.239 105.452 259.465 105.452V106.979H246.291V105.452C246.699 105.452 247.21 105.452 247.618 105.35C248.027 105.248 248.537 105.146 248.844 104.942C249.15 104.739 249.354 104.331 249.354 103.822C249.354 103.516 249.252 103.007 249.15 102.6C249.048 102.09 248.844 101.479 248.538 100.766L246.699 96.5903L246.393 95.5717L241.389 82.6363H241.287L236.078 95.5717L235.67 96.5903L233.627 101.479C233.525 101.887 233.423 102.192 233.219 102.6C233.015 103.007 233.015 103.414 233.015 103.822C233.015 104.535 233.219 104.942 233.73 105.146C234.24 105.35 234.955 105.452 236.078 105.452V106.776ZM247.414 96.794H234.853L235.568 94.7569H246.699L247.414 96.794Z" fill="#585757"/>
<path d="M292.451 106.776H278.256V105.248C279.583 105.248 280.605 105.146 281.217 104.942C281.83 104.739 282.239 104.331 282.443 103.618C282.647 102.905 282.749 101.887 282.749 100.563V78.6641H280.094C278.358 78.6641 277.132 78.8678 276.315 79.1734C275.498 79.5808 274.886 80.1919 274.477 81.1086C274.069 82.0253 273.762 83.3494 273.456 84.9791H271.72L272.23 76.4233H298.681L299.089 84.9791H297.353C297.047 83.2476 296.638 82.0253 296.332 81.1086C295.923 80.1919 295.31 79.5808 294.493 79.1734C293.676 78.766 292.349 78.6641 290.613 78.6641H287.957V100.563C287.957 101.989 288.06 103.007 288.264 103.618C288.468 104.23 288.877 104.739 289.489 104.942C290.102 105.146 291.123 105.248 292.451 105.248V106.776Z" fill="#585757"/>
<path d="M329.522 106.776H315.531V105.248C316.961 105.248 317.982 105.146 318.595 104.942C319.207 104.739 319.616 104.229 319.82 103.618C320.024 103.007 320.024 101.989 320.024 100.665V82.8401C320.024 81.6178 319.922 80.7011 319.82 79.9881C319.718 79.2751 319.31 78.7659 318.697 78.5622C318.084 78.2566 317.063 78.1548 315.633 78.1548V76.627H329.624V78.1548C328.194 78.1548 327.173 78.2566 326.56 78.5622C325.948 78.8677 325.539 79.377 325.437 79.9881C325.335 80.7011 325.233 81.6178 325.233 82.8401V100.665C325.233 101.989 325.335 103.007 325.437 103.618C325.539 104.229 326.05 104.739 326.663 104.942C327.275 105.146 328.297 105.248 329.624 105.248L329.522 106.776Z" fill="#585757"/>
<path d="M362.406 107.387C359.342 107.387 356.585 106.776 354.338 105.452C352.092 104.128 350.355 102.396 349.232 100.053C348.109 97.7108 347.394 94.8589 347.394 91.5996C347.394 88.4421 348.007 85.6921 349.232 83.3494C350.458 81.0068 352.194 79.1734 354.338 77.8493C356.585 76.5252 359.24 75.9141 362.406 75.9141C365.572 75.9141 368.227 76.5252 370.474 77.8493C372.721 79.1734 374.355 80.9049 375.58 83.1457C376.806 85.3865 377.316 88.1365 377.316 91.1922C377.316 94.4515 376.703 97.3034 375.478 99.7479C374.252 102.192 372.618 104.026 370.372 105.452C368.227 106.674 365.572 107.387 362.406 107.387ZM362.508 105.248C365.572 105.248 367.921 104.128 369.453 101.785C370.984 99.4423 371.699 95.9793 371.699 91.294C371.699 88.4421 371.291 86.0995 370.474 84.1642C369.657 82.1272 368.636 80.5994 367.206 79.5808C365.776 78.5623 364.142 77.9511 362.304 77.9511C359.444 77.9511 357.198 79.0715 355.564 81.516C353.93 83.8587 353.113 87.118 353.113 91.3959C353.113 95.7756 353.93 99.1368 355.462 101.581C356.993 104.026 359.342 105.248 362.508 105.248Z" fill="#585757"/>
<path d="M423.476 107.183H420.719L402.03 82.7383H400.6L399.579 80.8031C399.069 79.9882 398.558 79.3771 398.047 78.9697C397.639 78.5623 397.128 78.3586 396.618 78.1549C396.107 77.9512 395.596 77.9512 394.779 77.9512V76.4233H403.766L420.617 98.5257H420.821V83.9605C420.821 82.6364 420.719 81.516 420.515 80.5994C420.31 79.6827 419.902 79.0716 419.289 78.6641C418.676 78.2567 417.757 78.053 416.328 78.053V76.5252H427.663V78.053C426.438 78.053 425.519 78.2567 424.906 78.766C424.293 79.1734 423.885 79.8864 423.68 80.8031C423.476 81.7198 423.374 82.8402 423.374 84.2661L423.476 107.183ZM406.013 106.776H394.881V105.248C396.107 105.248 397.026 105.044 397.639 104.535C398.252 104.026 398.66 103.415 398.864 102.396C399.069 101.378 399.171 100.155 399.171 98.6275V79.3771H401.724V99.6461C401.724 101.174 401.826 102.294 402.03 103.109C402.234 103.924 402.643 104.433 403.256 104.739C403.868 105.044 404.787 105.146 405.911 105.146L406.013 106.776Z" fill="#585757"/>
<path d="M446.556 107.387H444.922L444.514 97.4052H446.25C446.761 99.5441 447.373 101.072 448.088 102.192C448.803 103.313 449.62 104.026 450.641 104.433C451.663 104.84 452.888 105.044 454.318 105.044C455.441 105.044 456.36 104.942 457.279 104.535C458.096 104.229 458.811 103.72 459.322 103.007C459.833 102.294 460.037 101.479 460.037 100.359C460.037 99.0348 459.73 97.9144 459.016 96.9977C458.301 96.0811 457.382 95.3681 456.258 94.6551C455.135 93.9421 453.909 93.331 452.684 92.618C451.356 91.905 450.131 91.1921 449.007 90.3772C447.782 89.5624 446.863 88.6457 446.148 87.5253C445.433 86.4049 445.025 84.979 445.025 83.2475C445.025 81.6178 445.433 80.1918 446.25 79.0714C447.067 77.951 448.19 77.1362 449.518 76.5251C450.948 75.914 452.48 75.6084 454.216 75.6084C455.543 75.6084 456.565 75.7102 457.382 75.9139C458.199 76.1177 458.811 76.3214 459.22 76.6269C459.628 76.9325 460.139 76.9325 460.445 76.9325C460.752 76.9325 461.058 76.8306 461.364 76.6269C461.671 76.4232 461.773 76.1177 461.875 75.6084H463.305L463.611 84.979H461.977C461.364 82.3307 460.445 80.3955 459.322 79.2751C458.199 78.0529 456.565 77.5436 454.42 77.5436C452.786 77.5436 451.56 77.8492 450.743 78.5622C449.926 79.2751 449.518 80.2937 449.518 81.6178C449.518 82.7382 449.824 83.7567 450.539 84.5715C451.152 85.3864 452.071 86.0994 453.092 86.7105C454.114 87.3216 455.237 87.9327 456.462 88.6457C457.484 89.155 458.505 89.7661 459.526 90.3772C460.547 90.9884 461.467 91.5995 462.386 92.4143C463.203 93.1273 463.918 94.044 464.428 95.0625C464.939 96.0811 465.245 97.3033 465.245 98.7292C465.245 100.563 464.837 102.09 463.918 103.313C463.101 104.535 461.875 105.553 460.343 106.165C458.811 106.776 457.075 107.183 455.135 107.183C453.603 107.183 452.275 107.081 451.356 106.878C450.437 106.674 449.722 106.368 449.11 106.165C448.599 105.961 448.19 105.859 447.782 105.859C447.373 105.859 447.169 105.961 446.965 106.266C446.761 106.674 446.556 106.979 446.556 107.387Z" fill="#585757"/>
</svg>
