<svg width="150" height="60" viewBox="0 0 150 60" fill="none" xmlns="http://www.w3.org/2000/svg">
<g clip-path="url(#clip0_147_158)">
<path d="M33.1449 52.9998V43.5453H36.3395C37.0781 43.5453 37.6844 43.6714 38.1584 43.9238C38.6323 44.1731 38.9832 44.5163 39.2109 44.9533C39.4387 45.3903 39.5526 45.8873 39.5526 46.4444C39.5526 47.0015 39.4387 47.4954 39.2109 47.9263C38.9832 48.3572 38.6339 48.6957 38.163 48.9419C37.6921 49.1851 37.0904 49.3066 36.358 49.3066H33.7727V48.2725H36.321C36.8258 48.2725 37.232 48.1987 37.5398 48.0509C37.8506 47.9032 38.0753 47.6939 38.2138 47.4231C38.3554 47.1492 38.4261 46.823 38.4261 46.4444C38.4261 46.0659 38.3554 45.735 38.2138 45.4519C38.0722 45.1687 37.846 44.9502 37.5352 44.7963C37.2243 44.6394 36.8134 44.5609 36.3026 44.5609H34.2898V52.9998H33.1449ZM37.5952 48.7526L39.9219 52.9998H38.5923L36.3026 48.7526H37.5952ZM42.7603 52.9998V43.5453H48.4663V44.5609H43.9052V47.7555H48.1708V48.7711H43.9052V51.9842H48.5401V52.9998H42.7603ZM59.327 43.5453V52.9998H58.2191L53.0671 45.5765H52.9747V52.9998H51.8298V43.5453H52.9378L58.1083 50.987H58.2006V43.5453H59.327ZM70.8952 48.2725C70.8952 49.2697 70.7152 50.1314 70.3551 50.8578C69.995 51.5841 69.501 52.1442 68.8732 52.5382C68.2453 52.9321 67.5283 53.1291 66.7219 53.1291C65.9156 53.1291 65.1985 52.9321 64.5706 52.5382C63.9428 52.1442 63.4488 51.5841 63.0887 50.8578C62.7287 50.1314 62.5486 49.2697 62.5486 48.2725C62.5486 47.2754 62.7287 46.4136 63.0887 45.6873C63.4488 44.961 63.9428 44.4008 64.5706 44.0069C65.1985 43.613 65.9156 43.416 66.7219 43.416C67.5283 43.416 68.2453 43.613 68.8732 44.0069C69.501 44.4008 69.995 44.961 70.3551 45.6873C70.7152 46.4136 70.8952 47.2754 70.8952 48.2725ZM69.7873 48.2725C69.7873 47.4539 69.6503 46.7629 69.3764 46.1997C69.1056 45.6365 68.7378 45.2103 68.273 44.921C67.8114 44.6317 67.2944 44.487 66.7219 44.487C66.1495 44.487 65.6309 44.6317 65.1662 44.921C64.7045 45.2103 64.3367 45.6365 64.0628 46.1997C63.792 46.7629 63.6566 47.4539 63.6566 48.2725C63.6566 49.0912 63.792 49.7821 64.0628 50.3453C64.3367 50.9085 64.7045 51.3348 65.1662 51.6241C65.6309 51.9134 66.1495 52.058 66.7219 52.058C67.2944 52.058 67.8114 51.9134 68.273 51.6241C68.7378 51.3348 69.1056 50.9085 69.3764 50.3453C69.6503 49.7821 69.7873 49.0912 69.7873 48.2725ZM74.0637 43.5453L76.8705 51.5041H76.9813L79.7882 43.5453H80.9884L77.5169 52.9998H76.335L72.8634 43.5453H74.0637ZM83.3364 52.9998H82.1361L85.6077 43.5453H86.7895L90.2611 52.9998H89.0608L86.2355 45.041H86.1617L83.3364 52.9998ZM83.7796 49.3066H88.6176V50.3222H83.7796V49.3066ZM91.4122 44.5609V43.5453H98.5031V44.5609H95.5301V52.9998H94.3852V44.5609H91.4122ZM102.715 43.5453V52.9998H101.57V43.5453H102.715ZM114.288 48.2725C114.288 49.2697 114.108 50.1314 113.748 50.8578C113.388 51.5841 112.894 52.1442 112.266 52.5382C111.638 52.9321 110.921 53.1291 110.114 53.1291C109.308 53.1291 108.591 52.9321 107.963 52.5382C107.335 52.1442 106.841 51.5841 106.481 50.8578C106.121 50.1314 105.941 49.2697 105.941 48.2725C105.941 47.2754 106.121 46.4136 106.481 45.6873C106.841 44.961 107.335 44.4008 107.963 44.0069C108.591 43.613 109.308 43.416 110.114 43.416C110.921 43.416 111.638 43.613 112.266 44.0069C112.894 44.4008 113.388 44.961 113.748 45.6873C114.108 46.4136 114.288 47.2754 114.288 48.2725ZM113.18 48.2725C113.18 47.4539 113.043 46.7629 112.769 46.1997C112.498 45.6365 112.13 45.2103 111.666 44.921C111.204 44.6317 110.687 44.487 110.114 44.487C109.542 44.487 109.023 44.6317 108.559 44.921C108.097 45.2103 107.729 45.6365 107.455 46.1997C107.185 46.7629 107.049 47.4539 107.049 48.2725C107.049 49.0912 107.185 49.7821 107.455 50.3453C107.729 50.9085 108.097 51.3348 108.559 51.6241C109.023 51.9134 109.542 52.058 110.114 52.058C110.687 52.058 111.204 51.9134 111.666 51.6241C112.13 51.3348 112.498 50.9085 112.769 50.3453C113.043 49.7821 113.18 49.0912 113.18 48.2725ZM125.01 43.5453V52.9998H123.902L118.75 45.5765H118.658V52.9998H117.513V43.5453H118.621L123.791 50.987H123.884V43.5453H125.01ZM133.771 45.9089C133.716 45.4411 133.491 45.0779 133.097 44.8194C132.703 44.5609 132.22 44.4316 131.648 44.4316C131.229 44.4316 130.863 44.4993 130.549 44.6347C130.238 44.7702 129.995 44.9564 129.82 45.1933C129.647 45.4303 129.561 45.6996 129.561 46.0012C129.561 46.2536 129.621 46.4706 129.741 46.6521C129.864 46.8306 130.021 46.9799 130.212 47.0999C130.403 47.2169 130.603 47.3138 130.812 47.3908C131.022 47.4646 131.214 47.5247 131.389 47.5708L132.35 47.8293C132.596 47.894 132.87 47.9832 133.171 48.0971C133.476 48.211 133.767 48.3664 134.044 48.5634C134.324 48.7573 134.555 49.0065 134.736 49.3112C134.918 49.6159 135.009 49.9899 135.009 50.433C135.009 50.9439 134.875 51.4056 134.607 51.818C134.342 52.2304 133.955 52.5582 133.444 52.8013C132.936 53.0444 132.319 53.166 131.592 53.166C130.915 53.166 130.329 53.0567 129.834 52.8382C129.341 52.6197 128.953 52.315 128.67 51.9242C128.39 51.5333 128.232 51.0793 128.195 50.5623H129.377C129.407 50.9193 129.527 51.2148 129.737 51.4487C129.949 51.6795 130.217 51.8518 130.54 51.9657C130.866 52.0765 131.217 52.1319 131.592 52.1319C132.029 52.1319 132.422 52.0611 132.77 51.9195C133.117 51.7749 133.393 51.5748 133.596 51.3194C133.799 51.0609 133.901 50.7593 133.901 50.4146C133.901 50.1007 133.813 49.8452 133.638 49.6482C133.462 49.4513 133.231 49.2912 132.945 49.1681C132.659 49.045 132.35 48.9373 132.017 48.845L130.854 48.5126C130.115 48.3002 129.53 47.9971 129.1 47.6031C128.669 47.2092 128.453 46.6937 128.453 46.0566C128.453 45.5273 128.596 45.0656 128.883 44.6717C129.172 44.2747 129.56 43.9669 130.046 43.7484C130.535 43.5268 131.082 43.416 131.685 43.416C132.294 43.416 132.836 43.5252 133.31 43.7438C133.784 43.9592 134.159 44.2547 134.436 44.6301C134.716 45.0056 134.864 45.4319 134.879 45.9089H133.771Z" fill="#585757"/>
<path d="M3.90234 8.52539H18.5801C20.373 8.52539 21.9316 8.71875 23.2559 9.10547C24.5918 9.48047 25.6992 10.002 26.5781 10.6699C27.457 11.3379 28.1074 12.1348 28.5293 13.0605C28.9629 13.9746 29.1797 14.9648 29.1797 16.0312C29.1797 17.7773 28.6289 19.3066 27.5273 20.6191C28.793 21.3691 29.7363 22.3418 30.3574 23.5371C30.9785 24.7324 31.2891 26.0918 31.2891 27.6152C31.2891 28.8926 31.0723 30.0469 30.6387 31.0781C30.2168 32.1094 29.5664 32.9941 28.6875 33.7324C27.8203 34.459 26.7188 35.0215 25.3828 35.4199C24.0586 35.8066 22.4941 36 20.6895 36H3.90234V8.52539ZM20.7246 19.0723C21.2051 19.0723 21.6738 19.0898 22.1309 19.125C22.916 18.375 23.3086 17.5195 23.3086 16.5586C23.3086 15.5625 22.916 14.7949 22.1309 14.2559C21.3574 13.7051 20.2207 13.4297 18.7207 13.4297H9.47461V19.0723H20.7246ZM20.8301 31.1484C22.3301 31.1484 23.4668 30.8262 24.2402 30.1816C25.0254 29.5371 25.418 28.6289 25.418 27.457C25.418 26.2852 25.0254 25.3711 24.2402 24.7148C23.4668 24.0586 22.3301 23.7305 20.8301 23.7305H9.47461V31.1484H20.8301ZM35.332 22.1836C35.332 20.1094 35.7129 18.2109 36.4746 16.4883C37.2363 14.7656 38.3027 13.2891 39.6738 12.0586C41.0566 10.8164 42.709 9.85547 44.6309 9.17578C46.5645 8.49609 48.7031 8.15625 51.0469 8.15625C53.3789 8.15625 55.5117 8.49609 57.4453 9.17578C59.3789 9.85547 61.0312 10.8164 62.4023 12.0586C63.7852 13.2891 64.8574 14.7656 65.6191 16.4883C66.3809 18.2109 66.7617 20.1094 66.7617 22.1836C66.7617 24.2695 66.3809 26.1855 65.6191 27.9316C64.8574 29.666 63.7852 31.1602 62.4023 32.4141C61.0312 33.668 59.3789 34.6465 57.4453 35.3496C55.5117 36.041 53.3789 36.3867 51.0469 36.3867C48.7031 36.3867 46.5645 36.041 44.6309 35.3496C42.709 34.6465 41.0566 33.668 39.6738 32.4141C38.3027 31.1602 37.2363 29.666 36.4746 27.9316C35.7129 26.1855 35.332 24.2695 35.332 22.1836ZM40.9043 22.1836C40.9043 23.6016 41.1562 24.8789 41.6602 26.0156C42.1758 27.1523 42.8848 28.125 43.7871 28.9336C44.7012 29.7305 45.7734 30.3457 47.0039 30.7793C48.2461 31.2129 49.5938 31.4297 51.0469 31.4297C52.5 31.4297 53.8418 31.2129 55.0723 30.7793C56.3145 30.3457 57.3867 29.7305 58.2891 28.9336C59.1914 28.125 59.9004 27.1523 60.416 26.0156C60.9316 24.8789 61.1895 23.6016 61.1895 22.1836C61.1895 20.7656 60.9316 19.4941 60.416 18.3691C59.9004 17.2441 59.1914 16.2949 58.2891 15.5215C57.3867 14.7363 56.3145 14.1387 55.0723 13.7285C53.8418 13.3184 52.5 13.1133 51.0469 13.1133C49.5938 13.1133 48.2461 13.3184 47.0039 13.7285C45.7734 14.1387 44.7012 14.7363 43.7871 15.5215C42.8848 16.2949 42.1758 17.2441 41.6602 18.3691C41.1562 19.4941 40.9043 20.7656 40.9043 22.1836ZM72.9492 8.52539H86.9238C89.0332 8.52539 90.8613 8.74805 92.4082 9.19336C93.9551 9.62695 95.2383 10.2598 96.2578 11.0918C97.2773 11.9238 98.0332 12.9375 98.5254 14.1328C99.0293 15.3281 99.2812 16.6816 99.2812 18.1934C99.2812 19.2129 99.1582 20.1855 98.9121 21.1113C98.666 22.0254 98.2852 22.8691 97.7695 23.6426C97.2656 24.416 96.627 25.1074 95.8535 25.7168C95.0801 26.3145 94.1719 26.8125 93.1289 27.2109L99.1055 36H92.2852L87.1172 28.1953H86.959L78.5215 28.1777V36H72.9492V8.52539ZM87.0645 23.3613C88.1191 23.3613 89.0391 23.2383 89.8242 22.9922C90.6211 22.7461 91.2832 22.4004 91.8105 21.9551C92.3496 21.5098 92.748 20.9707 93.0059 20.3379C93.2754 19.6934 93.4102 18.9785 93.4102 18.1934C93.4102 16.6582 92.8828 15.4746 91.8281 14.6426C90.7734 13.7988 89.1855 13.377 87.0645 13.377H78.5215V23.3613H87.0645ZM115.26 8.52539H121.166L134.455 36H128.602L126.404 31.377H110.355L108.229 36H102.357L115.26 8.52539ZM124.207 26.7891L118.266 14.3086L112.482 26.7891H124.207Z" fill="#585757"/>
</g>
<defs>
<clipPath id="clip0_147_158">
<rect width="150" height="60" fill="white"/>
</clipPath>
</defs>
</svg>
