<svg width="150" height="60" viewBox="0 0 150 60" fill="none" xmlns="http://www.w3.org/2000/svg">
<g clip-path="url(#clip0_168_11)">
<path d="M33.1449 53.0001V43.5456H36.3395C37.0781 43.5456 37.6844 43.6717 38.1584 43.9241C38.6323 44.1734 38.9832 44.5166 39.2109 44.9536C39.4387 45.3906 39.5526 45.8876 39.5526 46.4447C39.5526 47.0018 39.4387 47.4957 39.2109 47.9266C38.9832 48.3575 38.6339 48.696 38.163 48.9422C37.6921 49.1854 37.0904 49.3069 36.358 49.3069H33.7727V48.2728H36.321C36.8258 48.2728 37.232 48.199 37.5398 48.0512C37.8506 47.9035 38.0753 47.6942 38.2138 47.4234C38.3554 47.1495 38.4261 46.8233 38.4261 46.4447C38.4261 46.0662 38.3554 45.7353 38.2138 45.4522C38.0722 45.169 37.846 44.9505 37.5352 44.7966C37.2243 44.6397 36.8134 44.5612 36.3026 44.5612H34.2898V53.0001H33.1449ZM37.5952 48.7529L39.9219 53.0001H38.5923L36.3026 48.7529H37.5952ZM42.7603 53.0001V43.5456H48.4663V44.5612H43.9052V47.7558H48.1708V48.7714H43.9052V51.9845H48.5401V53.0001H42.7603ZM59.327 43.5456V53.0001H58.2191L53.0671 45.5768H52.9747V53.0001H51.8298V43.5456H52.9378L58.1083 50.9873H58.2006V43.5456H59.327ZM70.8952 48.2728C70.8952 49.27 70.7152 50.1317 70.3551 50.8581C69.995 51.5844 69.501 52.1445 68.8732 52.5385C68.2453 52.9324 67.5283 53.1294 66.7219 53.1294C65.9156 53.1294 65.1985 52.9324 64.5706 52.5385C63.9428 52.1445 63.4488 51.5844 63.0887 50.8581C62.7287 50.1317 62.5486 49.27 62.5486 48.2728C62.5486 47.2757 62.7287 46.4139 63.0887 45.6876C63.4488 44.9613 63.9428 44.4011 64.5706 44.0072C65.1985 43.6133 65.9156 43.4163 66.7219 43.4163C67.5283 43.4163 68.2453 43.6133 68.8732 44.0072C69.501 44.4011 69.995 44.9613 70.3551 45.6876C70.7152 46.4139 70.8952 47.2757 70.8952 48.2728ZM69.7873 48.2728C69.7873 47.4542 69.6503 46.7632 69.3764 46.2C69.1056 45.6368 68.7378 45.2106 68.273 44.9213C67.8114 44.632 67.2944 44.4873 66.7219 44.4873C66.1495 44.4873 65.6309 44.632 65.1662 44.9213C64.7045 45.2106 64.3367 45.6368 64.0628 46.2C63.792 46.7632 63.6566 47.4542 63.6566 48.2728C63.6566 49.0915 63.792 49.7824 64.0628 50.3456C64.3367 50.9088 64.7045 51.3351 65.1662 51.6244C65.6309 51.9137 66.1495 52.0583 66.7219 52.0583C67.2944 52.0583 67.8114 51.9137 68.273 51.6244C68.7378 51.3351 69.1056 50.9088 69.3764 50.3456C69.6503 49.7824 69.7873 49.0915 69.7873 48.2728ZM74.0637 43.5456L76.8705 51.5044H76.9813L79.7882 43.5456H80.9884L77.5169 53.0001H76.335L72.8634 43.5456H74.0637ZM83.3364 53.0001H82.1361L85.6077 43.5456H86.7895L90.2611 53.0001H89.0608L86.2355 45.0413H86.1617L83.3364 53.0001ZM83.7796 49.3069H88.6176V50.3225H83.7796V49.3069ZM91.4122 44.5612V43.5456H98.5031V44.5612H95.5301V53.0001H94.3852V44.5612H91.4122ZM102.715 43.5456V53.0001H101.57V43.5456H102.715ZM114.288 48.2728C114.288 49.27 114.108 50.1317 113.748 50.8581C113.388 51.5844 112.894 52.1445 112.266 52.5385C111.638 52.9324 110.921 53.1294 110.114 53.1294C109.308 53.1294 108.591 52.9324 107.963 52.5385C107.335 52.1445 106.841 51.5844 106.481 50.8581C106.121 50.1317 105.941 49.27 105.941 48.2728C105.941 47.2757 106.121 46.4139 106.481 45.6876C106.841 44.9613 107.335 44.4011 107.963 44.0072C108.591 43.6133 109.308 43.4163 110.114 43.4163C110.921 43.4163 111.638 43.6133 112.266 44.0072C112.894 44.4011 113.388 44.9613 113.748 45.6876C114.108 46.4139 114.288 47.2757 114.288 48.2728ZM113.18 48.2728C113.18 47.4542 113.043 46.7632 112.769 46.2C112.498 45.6368 112.13 45.2106 111.666 44.9213C111.204 44.632 110.687 44.4873 110.114 44.4873C109.542 44.4873 109.023 44.632 108.559 44.9213C108.097 45.2106 107.729 45.6368 107.455 46.2C107.185 46.7632 107.049 47.4542 107.049 48.2728C107.049 49.0915 107.185 49.7824 107.455 50.3456C107.729 50.9088 108.097 51.3351 108.559 51.6244C109.023 51.9137 109.542 52.0583 110.114 52.0583C110.687 52.0583 111.204 51.9137 111.666 51.6244C112.13 51.3351 112.498 50.9088 112.769 50.3456C113.043 49.7824 113.18 49.0915 113.18 48.2728ZM125.01 43.5456V53.0001H123.902L118.75 45.5768H118.658V53.0001H117.513V43.5456H118.621L123.791 50.9873H123.884V43.5456H125.01ZM133.771 45.9092C133.716 45.4414 133.491 45.0782 133.097 44.8197C132.703 44.5612 132.22 44.4319 131.648 44.4319C131.229 44.4319 130.863 44.4996 130.549 44.635C130.238 44.7705 129.995 44.9567 129.82 45.1936C129.647 45.4306 129.561 45.6999 129.561 46.0015C129.561 46.2539 129.621 46.4709 129.741 46.6524C129.864 46.8309 130.021 46.9802 130.212 47.1002C130.403 47.2172 130.603 47.3141 130.812 47.3911C131.022 47.4649 131.214 47.525 131.389 47.5711L132.35 47.8296C132.596 47.8943 132.87 47.9835 133.171 48.0974C133.476 48.2113 133.767 48.3667 134.044 48.5637C134.324 48.7576 134.555 49.0068 134.736 49.3115C134.918 49.6162 135.009 49.9902 135.009 50.4333C135.009 50.9442 134.875 51.4059 134.607 51.8183C134.342 52.2307 133.955 52.5585 133.444 52.8016C132.936 53.0447 132.319 53.1663 131.592 53.1663C130.915 53.1663 130.329 53.057 129.834 52.8385C129.341 52.62 128.953 52.3153 128.67 51.9245C128.39 51.5336 128.232 51.0796 128.195 50.5626H129.377C129.407 50.9196 129.527 51.2151 129.737 51.449C129.949 51.6798 130.217 51.8521 130.54 51.966C130.866 52.0768 131.217 52.1322 131.592 52.1322C132.029 52.1322 132.422 52.0614 132.77 51.9198C133.117 51.7752 133.393 51.5751 133.596 51.3197C133.799 51.0612 133.901 50.7596 133.901 50.4149C133.901 50.101 133.813 49.8455 133.638 49.6485C133.462 49.4516 133.231 49.2915 132.945 49.1684C132.659 49.0453 132.35 48.9376 132.017 48.8453L130.854 48.5129C130.115 48.3005 129.53 47.9974 129.1 47.6034C128.669 47.2095 128.453 46.694 128.453 46.0569C128.453 45.5276 128.596 45.0659 128.883 44.672C129.172 44.275 129.56 43.9672 130.046 43.7487C130.535 43.5271 131.082 43.4163 131.685 43.4163C132.294 43.4163 132.836 43.5255 133.31 43.7441C133.784 43.9595 134.159 44.255 134.436 44.6304C134.716 45.0059 134.864 45.4322 134.879 45.9092H133.771Z" fill="black"/>
<path d="M3.90234 8.52539H18.5801C20.373 8.52539 21.9316 8.71875 23.2559 9.10547C24.5918 9.48047 25.6992 10.002 26.5781 10.6699C27.457 11.3379 28.1074 12.1348 28.5293 13.0605C28.9629 13.9746 29.1797 14.9648 29.1797 16.0312C29.1797 17.7773 28.6289 19.3066 27.5273 20.6191C28.793 21.3691 29.7363 22.3418 30.3574 23.5371C30.9785 24.7324 31.2891 26.0918 31.2891 27.6152C31.2891 28.8926 31.0723 30.0469 30.6387 31.0781C30.2168 32.1094 29.5664 32.9941 28.6875 33.7324C27.8203 34.459 26.7188 35.0215 25.3828 35.4199C24.0586 35.8066 22.4941 36 20.6895 36H3.90234V8.52539ZM20.7246 19.0723C21.2051 19.0723 21.6738 19.0898 22.1309 19.125C22.916 18.375 23.3086 17.5195 23.3086 16.5586C23.3086 15.5625 22.916 14.7949 22.1309 14.2559C21.3574 13.7051 20.2207 13.4297 18.7207 13.4297H9.47461V19.0723H20.7246ZM20.8301 31.1484C22.3301 31.1484 23.4668 30.8262 24.2402 30.1816C25.0254 29.5371 25.418 28.6289 25.418 27.457C25.418 26.2852 25.0254 25.3711 24.2402 24.7148C23.4668 24.0586 22.3301 23.7305 20.8301 23.7305H9.47461V31.1484H20.8301ZM35.332 22.1836C35.332 20.1094 35.7129 18.2109 36.4746 16.4883C37.2363 14.7656 38.3027 13.2891 39.6738 12.0586C41.0566 10.8164 42.709 9.85547 44.6309 9.17578C46.5645 8.49609 48.7031 8.15625 51.0469 8.15625C53.3789 8.15625 55.5117 8.49609 57.4453 9.17578C59.3789 9.85547 61.0312 10.8164 62.4023 12.0586C63.7852 13.2891 64.8574 14.7656 65.6191 16.4883C66.3809 18.2109 66.7617 20.1094 66.7617 22.1836C66.7617 24.2695 66.3809 26.1855 65.6191 27.9316C64.8574 29.666 63.7852 31.1602 62.4023 32.4141C61.0312 33.668 59.3789 34.6465 57.4453 35.3496C55.5117 36.041 53.3789 36.3867 51.0469 36.3867C48.7031 36.3867 46.5645 36.041 44.6309 35.3496C42.709 34.6465 41.0566 33.668 39.6738 32.4141C38.3027 31.1602 37.2363 29.666 36.4746 27.9316C35.7129 26.1855 35.332 24.2695 35.332 22.1836ZM40.9043 22.1836C40.9043 23.6016 41.1562 24.8789 41.6602 26.0156C42.1758 27.1523 42.8848 28.125 43.7871 28.9336C44.7012 29.7305 45.7734 30.3457 47.0039 30.7793C48.2461 31.2129 49.5938 31.4297 51.0469 31.4297C52.5 31.4297 53.8418 31.2129 55.0723 30.7793C56.3145 30.3457 57.3867 29.7305 58.2891 28.9336C59.1914 28.125 59.9004 27.1523 60.416 26.0156C60.9316 24.8789 61.1895 23.6016 61.1895 22.1836C61.1895 20.7656 60.9316 19.4941 60.416 18.3691C59.9004 17.2441 59.1914 16.2949 58.2891 15.5215C57.3867 14.7363 56.3145 14.1387 55.0723 13.7285C53.8418 13.3184 52.5 13.1133 51.0469 13.1133C49.5938 13.1133 48.2461 13.3184 47.0039 13.7285C45.7734 14.1387 44.7012 14.7363 43.7871 15.5215C42.8848 16.2949 42.1758 17.2441 41.6602 18.3691C41.1562 19.4941 40.9043 20.7656 40.9043 22.1836ZM72.9492 8.52539H86.9238C89.0332 8.52539 90.8613 8.74805 92.4082 9.19336C93.9551 9.62695 95.2383 10.2598 96.2578 11.0918C97.2773 11.9238 98.0332 12.9375 98.5254 14.1328C99.0293 15.3281 99.2812 16.6816 99.2812 18.1934C99.2812 19.2129 99.1582 20.1855 98.9121 21.1113C98.666 22.0254 98.2852 22.8691 97.7695 23.6426C97.2656 24.416 96.627 25.1074 95.8535 25.7168C95.0801 26.3145 94.1719 26.8125 93.1289 27.2109L99.1055 36H92.2852L87.1172 28.1953H86.959L78.5215 28.1777V36H72.9492V8.52539ZM87.0645 23.3613C88.1191 23.3613 89.0391 23.2383 89.8242 22.9922C90.6211 22.7461 91.2832 22.4004 91.8105 21.9551C92.3496 21.5098 92.748 20.9707 93.0059 20.3379C93.2754 19.6934 93.4102 18.9785 93.4102 18.1934C93.4102 16.6582 92.8828 15.4746 91.8281 14.6426C90.7734 13.7988 89.1855 13.377 87.0645 13.377H78.5215V23.3613H87.0645ZM115.26 8.52539H121.166L134.455 36H128.602L126.404 31.377H110.355L108.229 36H102.357L115.26 8.52539ZM124.207 26.7891L118.266 14.3086L112.482 26.7891H124.207Z" fill="black"/>
</g>
<defs>
<clipPath id="clip0_168_11">
<rect width="150" height="60" fill="white"/>
</clipPath>
</defs>
</svg>
