<svg xmlns="http://www.w3.org/2000/svg" viewBox="0 0 48 48"><g data-name="21-thumbs up"><path d="M15 45H1a1 1 0 0 1-1-1V20a1 1 0 0 1 1-1h14a1 1 0 0 1 1 1v24a1 1 0 0 1-1 1ZM2 43h12V21H2Z"/><path d="M43 28h-8a1 1 0 0 1 0-2h8c.12 0 3-.041 3-2s-2.88-2-3-2H28a1 1 0 0 1-1-1V11a6.77 6.77 0 0 0-5-6.728V18a5.006 5.006 0 0 1-5 5h-2a1 1 0 0 1 0-2h2a3 3 0 0 0 3-3V3a1 1 0 0 1 1.142-.99A9.015 9.015 0 0 1 29 11v9h14c1.729 0 5 .836 5 4s-3.271 4-5 4Z"/><path d="M42 34h-6a1 1 0 0 1 0-2h6c.12 0 3-.041 3-2s-2.88-2-3-2h-6a1 1 0 0 1 0-2h6c1.729 0 5 .836 5 4s-3.271 4-5 4Z"/><path d="M41 40h-6a1 1 0 0 1 0-2h6c.12 0 3-.041 3-2s-2.88-2-3-2h-6a1 1 0 0 1 0-2h6c1.729 0 5 .836 5 4s-3.271 4-5 4Z"/><path d="M39 46H24.485a6.955 6.955 0 0 1-4.95-2.051L17.586 42H15a1 1 0 0 1 0-2h3a1 1 0 0 1 .707.293l2.243 2.242A4.967 4.967 0 0 0 24.485 44H39c.12 0 3-.041 3-2s-2.88-2-3-2h-6a1 1 0 0 1 0-2h6c1.729 0 5 .836 5 4s-3.271 4-5 4zM8 41a3 3 0 1 1 3-3 3 3 0 0 1-3 3zm0-4a1 1 0 1 0 1 1 1 1 0 0 0-1-1z"/></g></svg>